<?xml version="1.0" encoding="utf-8" standalone="no"?>
<!DOCTYPE svg PUBLIC "-//W3C//DTD SVG 1.1//EN"
  "http://www.w3.org/Graphics/SVG/1.1/DTD/svg11.dtd">
<svg xmlns:xlink="http://www.w3.org/1999/xlink" width="473.9975pt" height="277.17942pt" viewBox="0 0 473.9975 277.17942" xmlns="http://www.w3.org/2000/svg" version="1.1">
 <metadata>
  <rdf:RDF xmlns:dc="http://purl.org/dc/elements/1.1/" xmlns:cc="http://creativecommons.org/ns#" xmlns:rdf="http://www.w3.org/1999/02/22-rdf-syntax-ns#">
   <cc:Work>
    <dc:type rdf:resource="http://purl.org/dc/dcmitype/StillImage"/>
    <dc:date>2025-08-21T16:00:58.318881</dc:date>
    <dc:format>image/svg+xml</dc:format>
    <dc:creator>
     <cc:Agent>
      <dc:title>Matplotlib v3.10.1, https://matplotlib.org/</dc:title>
     </cc:Agent>
    </dc:creator>
   </cc:Work>
  </rdf:RDF>
 </metadata>
 <defs>
  <style type="text/css">*{stroke-linejoin: round; stroke-linecap: butt}</style>
 </defs>
 <g id="figure_1">
  <g id="patch_1">
   <path d="M 0 277.17942 
L 473.9975 277.17942 
L 473.9975 0 
L 0 0 
z
" style="fill: #ffffff"/>
  </g>
  <g id="axes_1">
   <g id="patch_2">
    <path d="M 268.396354 197.45013 
C 255.730689 183.975097 248.67304 166.161582 248.67304 147.66846 
C 248.67304 129.175337 255.730689 111.361823 268.396354 97.88679 
C 262.939198 88.278807 255.939125 79.633215 247.676721 72.296555 
C 239.414317 64.959895 230.001471 59.031522 219.815479 54.749062 
C 209.629487 50.466602 198.808288 47.888048 187.78563 47.116758 
C 176.762971 46.345468 165.688121 47.391886 155.004995 50.214068 
C 144.321869 53.03625 134.175137 57.595978 124.971513 63.710485 
C 115.767888 69.824991 107.632006 77.411473 100.889978 86.165841 
C 94.147951 94.920208 88.891077 104.72391 85.33007 115.183983 
C 81.769063 125.644056 79.952146 136.618849 79.952146 147.66846 
C 79.952146 158.71807 81.769063 169.692864 85.33007 180.152937 
C 88.891077 190.61301 94.147951 200.416711 100.889978 209.171079 
C 107.632006 217.925447 115.767888 225.511929 124.971513 231.626435 
C 134.175137 237.740942 144.321869 242.30067 155.004995 245.122852 
C 165.688121 247.945034 176.762971 248.991452 187.78563 248.220161 
C 198.808288 247.448871 209.629487 244.870318 219.815479 240.587858 
C 230.001471 236.305398 239.414317 230.377024 247.676721 223.040365 
C 255.939125 215.703705 262.939198 207.058113 268.396354 197.45013 
" clip-path="url(#p17e5589d66)" style="fill: #ff0000; opacity: 0.7"/>
   </g>
   <g id="patch_3">
    <path d="M 268.396354 97.88679 
C 277.015181 113.061277 281.547274 130.217121 281.547274 147.66846 
C 281.547274 165.119799 277.015181 182.275643 268.396354 197.45013 
C 273.357027 202.727802 279.078821 207.234468 285.371838 210.820557 
C 291.664855 214.406647 298.458696 217.032042 305.527881 218.60961 
C 312.597066 220.187179 319.862514 220.699271 327.083094 220.128893 
C 334.303673 219.558515 341.398609 217.912047 348.132429 215.244132 
C 354.866249 212.576217 361.163623 208.916702 366.815549 204.387041 
C 372.467475 199.85738 377.410727 194.508246 381.481243 188.517169 
C 385.551759 182.526092 388.704003 175.960094 390.833357 169.037093 
C 392.962711 162.114092 394.045354 154.911532 394.045354 147.66846 
C 394.045354 140.425387 392.962711 133.222828 390.833357 126.299827 
C 388.704003 119.376825 385.551759 112.810827 381.481243 106.819751 
C 377.410727 100.828674 372.467475 95.47954 366.815549 90.949879 
C 361.163623 86.420218 354.866249 82.760702 348.132429 80.092788 
C 341.398609 77.424873 334.303673 75.778405 327.083094 75.208026 
C 319.862514 74.637648 312.597066 75.149741 305.527881 76.727309 
C 298.458696 78.304877 291.664855 80.930273 285.371838 84.516362 
C 279.078821 88.102452 273.357027 92.609118 268.396354 97.88679 
" clip-path="url(#p17e5589d66)" style="fill: #008000; opacity: 0.7"/>
   </g>
   <g id="patch_4">
    <path d="M 268.396354 197.45013 
C 277.015181 182.275643 281.547274 165.119799 281.547274 147.66846 
C 281.547274 130.217121 277.015181 113.061277 268.396354 97.88679 
C 255.730689 111.361823 248.67304 129.175337 248.67304 147.66846 
C 248.67304 166.161582 255.730689 183.975097 268.396354 197.45013 
" clip-path="url(#p17e5589d66)" style="fill: #b25a00; opacity: 0.7"/>
   </g>
   <g id="patch_5">
    <path d="M 180.74971 248.466024 
C 207.481536 248.466024 233.122095 237.845356 252.024351 218.943101 
C 270.926606 200.040845 281.547274 174.400286 281.547274 147.66846 
C 281.547274 120.936633 270.926606 95.296075 252.024351 76.393819 
C 233.122095 57.491563 207.481536 46.870896 180.74971 46.870896 
C 154.017883 46.870896 128.377325 57.491563 109.475069 76.393819 
C 90.572813 95.296075 79.952146 120.936633 79.952146 147.66846 
C 79.952146 174.400286 90.572813 200.040845 109.475069 218.943101 
C 128.377325 237.845356 154.017883 248.466024 180.74971 248.466024 
L 180.74971 248.466024 
z
" clip-path="url(#p17e5589d66)" style="fill: none; stroke: #000000; stroke-width: 2; stroke-linejoin: miter"/>
   </g>
   <g id="patch_6">
    <path d="M 321.359197 220.354617 
C 340.635791 220.354617 359.125461 212.695945 372.756071 199.065334 
C 386.386682 185.434724 394.045354 166.945054 394.045354 147.66846 
C 394.045354 128.391866 386.386682 109.902196 372.756071 96.271585 
C 359.125461 82.640975 340.635791 74.982303 321.359197 74.982303 
C 302.082603 74.982303 283.592933 82.640975 269.962323 96.271585 
C 256.331712 109.902196 248.67304 128.391866 248.67304 147.66846 
C 248.67304 166.945054 256.331712 185.434724 269.962323 199.065334 
C 283.592933 212.695945 302.082603 220.354617 321.359197 220.354617 
L 321.359197 220.354617 
z
" clip-path="url(#p17e5589d66)" style="fill: none; stroke: #000000; stroke-width: 2; stroke-linejoin: miter"/>
   </g>
   <g id="text_1">
    <!-- 93 -->
    <g transform="translate(157.950093 150.427835) scale(0.1 -0.1)">
     <defs>
      <path id="DejaVuSans-39" d="M 703 97 
L 703 672 
Q 941 559 1184 500 
Q 1428 441 1663 441 
Q 2288 441 2617 861 
Q 2947 1281 2994 2138 
Q 2813 1869 2534 1725 
Q 2256 1581 1919 1581 
Q 1219 1581 811 2004 
Q 403 2428 403 3163 
Q 403 3881 828 4315 
Q 1253 4750 1959 4750 
Q 2769 4750 3195 4129 
Q 3622 3509 3622 2328 
Q 3622 1225 3098 567 
Q 2575 -91 1691 -91 
Q 1453 -91 1209 -44 
Q 966 3 703 97 
z
M 1959 2075 
Q 2384 2075 2632 2365 
Q 2881 2656 2881 3163 
Q 2881 3666 2632 3958 
Q 2384 4250 1959 4250 
Q 1534 4250 1286 3958 
Q 1038 3666 1038 3163 
Q 1038 2656 1286 2365 
Q 1534 2075 1959 2075 
z
" transform="scale(0.015625)"/>
      <path id="DejaVuSans-33" d="M 2597 2516 
Q 3050 2419 3304 2112 
Q 3559 1806 3559 1356 
Q 3559 666 3084 287 
Q 2609 -91 1734 -91 
Q 1441 -91 1130 -33 
Q 819 25 488 141 
L 488 750 
Q 750 597 1062 519 
Q 1375 441 1716 441 
Q 2309 441 2620 675 
Q 2931 909 2931 1356 
Q 2931 1769 2642 2001 
Q 2353 2234 1838 2234 
L 1294 2234 
L 1294 2753 
L 1863 2753 
Q 2328 2753 2575 2939 
Q 2822 3125 2822 3475 
Q 2822 3834 2567 4026 
Q 2313 4219 1838 4219 
Q 1578 4219 1281 4162 
Q 984 4106 628 3988 
L 628 4550 
Q 988 4650 1302 4700 
Q 1616 4750 1894 4750 
Q 2613 4750 3031 4423 
Q 3450 4097 3450 3541 
Q 3450 3153 3228 2886 
Q 3006 2619 2597 2516 
z
" transform="scale(0.015625)"/>
     </defs>
     <use xlink:href="#DejaVuSans-39"/>
     <use xlink:href="#DejaVuSans-33" transform="translate(63.623047 0)"/>
    </g>
   </g>
   <g id="text_2">
    <!-- 45 -->
    <g transform="translate(331.433814 150.427835) scale(0.1 -0.1)">
     <defs>
      <path id="DejaVuSans-34" d="M 2419 4116 
L 825 1625 
L 2419 1625 
L 2419 4116 
z
M 2253 4666 
L 3047 4666 
L 3047 1625 
L 3713 1625 
L 3713 1100 
L 3047 1100 
L 3047 0 
L 2419 0 
L 2419 1100 
L 313 1100 
L 313 1709 
L 2253 4666 
z
" transform="scale(0.015625)"/>
      <path id="DejaVuSans-35" d="M 691 4666 
L 3169 4666 
L 3169 4134 
L 1269 4134 
L 1269 2991 
Q 1406 3038 1543 3061 
Q 1681 3084 1819 3084 
Q 2600 3084 3056 2656 
Q 3513 2228 3513 1497 
Q 3513 744 3044 326 
Q 2575 -91 1722 -91 
Q 1428 -91 1123 -41 
Q 819 9 494 109 
L 494 744 
Q 775 591 1075 516 
Q 1375 441 1709 441 
Q 2250 441 2565 725 
Q 2881 1009 2881 1497 
Q 2881 1984 2565 2268 
Q 2250 2553 1709 2553 
Q 1456 2553 1204 2497 
Q 953 2441 691 2322 
L 691 4666 
z
" transform="scale(0.015625)"/>
     </defs>
     <use xlink:href="#DejaVuSans-34"/>
     <use xlink:href="#DejaVuSans-35" transform="translate(63.623047 0)"/>
    </g>
   </g>
   <g id="text_3">
    <!-- 7 -->
    <g transform="translate(261.928907 150.427835) scale(0.1 -0.1)">
     <defs>
      <path id="DejaVuSans-37" d="M 525 4666 
L 3525 4666 
L 3525 4397 
L 1831 0 
L 1172 0 
L 2766 4134 
L 525 4134 
L 525 4666 
z
" transform="scale(0.015625)"/>
     </defs>
     <use xlink:href="#DejaVuSans-37"/>
    </g>
   </g>
   <g id="text_4">
    <!-- Lesion -->
    <g transform="translate(142.35721 266.258335) scale(0.12 -0.12)">
     <defs>
      <path id="DejaVuSans-4c" d="M 628 4666 
L 1259 4666 
L 1259 531 
L 3531 531 
L 3531 0 
L 628 0 
L 628 4666 
z
" transform="scale(0.015625)"/>
      <path id="DejaVuSans-65" d="M 3597 1894 
L 3597 1613 
L 953 1613 
Q 991 1019 1311 708 
Q 1631 397 2203 397 
Q 2534 397 2845 478 
Q 3156 559 3463 722 
L 3463 178 
Q 3153 47 2828 -22 
Q 2503 -91 2169 -91 
Q 1331 -91 842 396 
Q 353 884 353 1716 
Q 353 2575 817 3079 
Q 1281 3584 2069 3584 
Q 2775 3584 3186 3129 
Q 3597 2675 3597 1894 
z
M 3022 2063 
Q 3016 2534 2758 2815 
Q 2500 3097 2075 3097 
Q 1594 3097 1305 2825 
Q 1016 2553 972 2059 
L 3022 2063 
z
" transform="scale(0.015625)"/>
      <path id="DejaVuSans-73" d="M 2834 3397 
L 2834 2853 
Q 2591 2978 2328 3040 
Q 2066 3103 1784 3103 
Q 1356 3103 1142 2972 
Q 928 2841 928 2578 
Q 928 2378 1081 2264 
Q 1234 2150 1697 2047 
L 1894 2003 
Q 2506 1872 2764 1633 
Q 3022 1394 3022 966 
Q 3022 478 2636 193 
Q 2250 -91 1575 -91 
Q 1294 -91 989 -36 
Q 684 19 347 128 
L 347 722 
Q 666 556 975 473 
Q 1284 391 1588 391 
Q 1994 391 2212 530 
Q 2431 669 2431 922 
Q 2431 1156 2273 1281 
Q 2116 1406 1581 1522 
L 1381 1569 
Q 847 1681 609 1914 
Q 372 2147 372 2553 
Q 372 3047 722 3315 
Q 1072 3584 1716 3584 
Q 2034 3584 2315 3537 
Q 2597 3491 2834 3397 
z
" transform="scale(0.015625)"/>
      <path id="DejaVuSans-69" d="M 603 3500 
L 1178 3500 
L 1178 0 
L 603 0 
L 603 3500 
z
M 603 4863 
L 1178 4863 
L 1178 4134 
L 603 4134 
L 603 4863 
z
" transform="scale(0.015625)"/>
      <path id="DejaVuSans-6f" d="M 1959 3097 
Q 1497 3097 1228 2736 
Q 959 2375 959 1747 
Q 959 1119 1226 758 
Q 1494 397 1959 397 
Q 2419 397 2687 759 
Q 2956 1122 2956 1747 
Q 2956 2369 2687 2733 
Q 2419 3097 1959 3097 
z
M 1959 3584 
Q 2709 3584 3137 3096 
Q 3566 2609 3566 1747 
Q 3566 888 3137 398 
Q 2709 -91 1959 -91 
Q 1206 -91 779 398 
Q 353 888 353 1747 
Q 353 2609 779 3096 
Q 1206 3584 1959 3584 
z
" transform="scale(0.015625)"/>
      <path id="DejaVuSans-6e" d="M 3513 2113 
L 3513 0 
L 2938 0 
L 2938 2094 
Q 2938 2591 2744 2837 
Q 2550 3084 2163 3084 
Q 1697 3084 1428 2787 
Q 1159 2491 1159 1978 
L 1159 0 
L 581 0 
L 581 3500 
L 1159 3500 
L 1159 2956 
Q 1366 3272 1645 3428 
Q 1925 3584 2291 3584 
Q 2894 3584 3203 3211 
Q 3513 2838 3513 2113 
z
" transform="scale(0.015625)"/>
     </defs>
     <use xlink:href="#DejaVuSans-4c"/>
     <use xlink:href="#DejaVuSans-65" transform="translate(53.962891 0)"/>
     <use xlink:href="#DejaVuSans-73" transform="translate(115.486328 0)"/>
     <use xlink:href="#DejaVuSans-69" transform="translate(167.585938 0)"/>
     <use xlink:href="#DejaVuSans-6f" transform="translate(195.369141 0)"/>
     <use xlink:href="#DejaVuSans-6e" transform="translate(256.550781 0)"/>
    </g>
   </g>
   <g id="text_5">
    <!-- Treatment -->
    <g transform="translate(321.359197 238.146928) scale(0.12 -0.12)">
     <defs>
      <path id="DejaVuSans-54" d="M -19 4666 
L 3928 4666 
L 3928 4134 
L 2272 4134 
L 2272 0 
L 1638 0 
L 1638 4134 
L -19 4134 
L -19 4666 
z
" transform="scale(0.015625)"/>
      <path id="DejaVuSans-72" d="M 2631 2963 
Q 2534 3019 2420 3045 
Q 2306 3072 2169 3072 
Q 1681 3072 1420 2755 
Q 1159 2438 1159 1844 
L 1159 0 
L 581 0 
L 581 3500 
L 1159 3500 
L 1159 2956 
Q 1341 3275 1631 3429 
Q 1922 3584 2338 3584 
Q 2397 3584 2469 3576 
Q 2541 3569 2628 3553 
L 2631 2963 
z
" transform="scale(0.015625)"/>
      <path id="DejaVuSans-61" d="M 2194 1759 
Q 1497 1759 1228 1600 
Q 959 1441 959 1056 
Q 959 750 1161 570 
Q 1363 391 1709 391 
Q 2188 391 2477 730 
Q 2766 1069 2766 1631 
L 2766 1759 
L 2194 1759 
z
M 3341 1997 
L 3341 0 
L 2766 0 
L 2766 531 
Q 2569 213 2275 61 
Q 1981 -91 1556 -91 
Q 1019 -91 701 211 
Q 384 513 384 1019 
Q 384 1609 779 1909 
Q 1175 2209 1959 2209 
L 2766 2209 
L 2766 2266 
Q 2766 2663 2505 2880 
Q 2244 3097 1772 3097 
Q 1472 3097 1187 3025 
Q 903 2953 641 2809 
L 641 3341 
Q 956 3463 1253 3523 
Q 1550 3584 1831 3584 
Q 2591 3584 2966 3190 
Q 3341 2797 3341 1997 
z
" transform="scale(0.015625)"/>
      <path id="DejaVuSans-74" d="M 1172 4494 
L 1172 3500 
L 2356 3500 
L 2356 3053 
L 1172 3053 
L 1172 1153 
Q 1172 725 1289 603 
Q 1406 481 1766 481 
L 2356 481 
L 2356 0 
L 1766 0 
Q 1100 0 847 248 
Q 594 497 594 1153 
L 594 3053 
L 172 3053 
L 172 3500 
L 594 3500 
L 594 4494 
L 1172 4494 
z
" transform="scale(0.015625)"/>
      <path id="DejaVuSans-6d" d="M 3328 2828 
Q 3544 3216 3844 3400 
Q 4144 3584 4550 3584 
Q 5097 3584 5394 3201 
Q 5691 2819 5691 2113 
L 5691 0 
L 5113 0 
L 5113 2094 
Q 5113 2597 4934 2840 
Q 4756 3084 4391 3084 
Q 3944 3084 3684 2787 
Q 3425 2491 3425 1978 
L 3425 0 
L 2847 0 
L 2847 2094 
Q 2847 2600 2669 2842 
Q 2491 3084 2119 3084 
Q 1678 3084 1418 2786 
Q 1159 2488 1159 1978 
L 1159 0 
L 581 0 
L 581 3500 
L 1159 3500 
L 1159 2956 
Q 1356 3278 1631 3431 
Q 1906 3584 2284 3584 
Q 2666 3584 2933 3390 
Q 3200 3197 3328 2828 
z
" transform="scale(0.015625)"/>
     </defs>
     <use xlink:href="#DejaVuSans-54"/>
     <use xlink:href="#DejaVuSans-72" transform="translate(46.333984 0)"/>
     <use xlink:href="#DejaVuSans-65" transform="translate(85.197266 0)"/>
     <use xlink:href="#DejaVuSans-61" transform="translate(146.720703 0)"/>
     <use xlink:href="#DejaVuSans-74" transform="translate(208 0)"/>
     <use xlink:href="#DejaVuSans-6d" transform="translate(247.208984 0)"/>
     <use xlink:href="#DejaVuSans-65" transform="translate(344.621094 0)"/>
     <use xlink:href="#DejaVuSans-6e" transform="translate(406.144531 0)"/>
     <use xlink:href="#DejaVuSans-74" transform="translate(469.523438 0)"/>
    </g>
   </g>
   <g id="text_6">
    <!-- Venn Diagram of Lesion and Treatment Features (ANOVA) -->
    <g transform="translate(7.2 19.3575) scale(0.16 -0.16)">
     <defs>
      <path id="DejaVuSans-56" d="M 1831 0 
L 50 4666 
L 709 4666 
L 2188 738 
L 3669 4666 
L 4325 4666 
L 2547 0 
L 1831 0 
z
" transform="scale(0.015625)"/>
      <path id="DejaVuSans-20" transform="scale(0.015625)"/>
      <path id="DejaVuSans-44" d="M 1259 4147 
L 1259 519 
L 2022 519 
Q 2988 519 3436 956 
Q 3884 1394 3884 2338 
Q 3884 3275 3436 3711 
Q 2988 4147 2022 4147 
L 1259 4147 
z
M 628 4666 
L 1925 4666 
Q 3281 4666 3915 4102 
Q 4550 3538 4550 2338 
Q 4550 1131 3912 565 
Q 3275 0 1925 0 
L 628 0 
L 628 4666 
z
" transform="scale(0.015625)"/>
      <path id="DejaVuSans-67" d="M 2906 1791 
Q 2906 2416 2648 2759 
Q 2391 3103 1925 3103 
Q 1463 3103 1205 2759 
Q 947 2416 947 1791 
Q 947 1169 1205 825 
Q 1463 481 1925 481 
Q 2391 481 2648 825 
Q 2906 1169 2906 1791 
z
M 3481 434 
Q 3481 -459 3084 -895 
Q 2688 -1331 1869 -1331 
Q 1566 -1331 1297 -1286 
Q 1028 -1241 775 -1147 
L 775 -588 
Q 1028 -725 1275 -790 
Q 1522 -856 1778 -856 
Q 2344 -856 2625 -561 
Q 2906 -266 2906 331 
L 2906 616 
Q 2728 306 2450 153 
Q 2172 0 1784 0 
Q 1141 0 747 490 
Q 353 981 353 1791 
Q 353 2603 747 3093 
Q 1141 3584 1784 3584 
Q 2172 3584 2450 3431 
Q 2728 3278 2906 2969 
L 2906 3500 
L 3481 3500 
L 3481 434 
z
" transform="scale(0.015625)"/>
      <path id="DejaVuSans-66" d="M 2375 4863 
L 2375 4384 
L 1825 4384 
Q 1516 4384 1395 4259 
Q 1275 4134 1275 3809 
L 1275 3500 
L 2222 3500 
L 2222 3053 
L 1275 3053 
L 1275 0 
L 697 0 
L 697 3053 
L 147 3053 
L 147 3500 
L 697 3500 
L 697 3744 
Q 697 4328 969 4595 
Q 1241 4863 1831 4863 
L 2375 4863 
z
" transform="scale(0.015625)"/>
      <path id="DejaVuSans-64" d="M 2906 2969 
L 2906 4863 
L 3481 4863 
L 3481 0 
L 2906 0 
L 2906 525 
Q 2725 213 2448 61 
Q 2172 -91 1784 -91 
Q 1150 -91 751 415 
Q 353 922 353 1747 
Q 353 2572 751 3078 
Q 1150 3584 1784 3584 
Q 2172 3584 2448 3432 
Q 2725 3281 2906 2969 
z
M 947 1747 
Q 947 1113 1208 752 
Q 1469 391 1925 391 
Q 2381 391 2643 752 
Q 2906 1113 2906 1747 
Q 2906 2381 2643 2742 
Q 2381 3103 1925 3103 
Q 1469 3103 1208 2742 
Q 947 2381 947 1747 
z
" transform="scale(0.015625)"/>
      <path id="DejaVuSans-46" d="M 628 4666 
L 3309 4666 
L 3309 4134 
L 1259 4134 
L 1259 2759 
L 3109 2759 
L 3109 2228 
L 1259 2228 
L 1259 0 
L 628 0 
L 628 4666 
z
" transform="scale(0.015625)"/>
      <path id="DejaVuSans-75" d="M 544 1381 
L 544 3500 
L 1119 3500 
L 1119 1403 
Q 1119 906 1312 657 
Q 1506 409 1894 409 
Q 2359 409 2629 706 
Q 2900 1003 2900 1516 
L 2900 3500 
L 3475 3500 
L 3475 0 
L 2900 0 
L 2900 538 
Q 2691 219 2414 64 
Q 2138 -91 1772 -91 
Q 1169 -91 856 284 
Q 544 659 544 1381 
z
M 1991 3584 
L 1991 3584 
z
" transform="scale(0.015625)"/>
      <path id="DejaVuSans-28" d="M 1984 4856 
Q 1566 4138 1362 3434 
Q 1159 2731 1159 2009 
Q 1159 1288 1364 580 
Q 1569 -128 1984 -844 
L 1484 -844 
Q 1016 -109 783 600 
Q 550 1309 550 2009 
Q 550 2706 781 3412 
Q 1013 4119 1484 4856 
L 1984 4856 
z
" transform="scale(0.015625)"/>
      <path id="DejaVuSans-41" d="M 2188 4044 
L 1331 1722 
L 3047 1722 
L 2188 4044 
z
M 1831 4666 
L 2547 4666 
L 4325 0 
L 3669 0 
L 3244 1197 
L 1141 1197 
L 716 0 
L 50 0 
L 1831 4666 
z
" transform="scale(0.015625)"/>
      <path id="DejaVuSans-4e" d="M 628 4666 
L 1478 4666 
L 3547 763 
L 3547 4666 
L 4159 4666 
L 4159 0 
L 3309 0 
L 1241 3903 
L 1241 0 
L 628 0 
L 628 4666 
z
" transform="scale(0.015625)"/>
      <path id="DejaVuSans-4f" d="M 2522 4238 
Q 1834 4238 1429 3725 
Q 1025 3213 1025 2328 
Q 1025 1447 1429 934 
Q 1834 422 2522 422 
Q 3209 422 3611 934 
Q 4013 1447 4013 2328 
Q 4013 3213 3611 3725 
Q 3209 4238 2522 4238 
z
M 2522 4750 
Q 3503 4750 4090 4092 
Q 4678 3434 4678 2328 
Q 4678 1225 4090 567 
Q 3503 -91 2522 -91 
Q 1538 -91 948 565 
Q 359 1222 359 2328 
Q 359 3434 948 4092 
Q 1538 4750 2522 4750 
z
" transform="scale(0.015625)"/>
      <path id="DejaVuSans-29" d="M 513 4856 
L 1013 4856 
Q 1481 4119 1714 3412 
Q 1947 2706 1947 2009 
Q 1947 1309 1714 600 
Q 1481 -109 1013 -844 
L 513 -844 
Q 928 -128 1133 580 
Q 1338 1288 1338 2009 
Q 1338 2731 1133 3434 
Q 928 4138 513 4856 
z
" transform="scale(0.015625)"/>
     </defs>
     <use xlink:href="#DejaVuSans-56"/>
     <use xlink:href="#DejaVuSans-65" transform="translate(60.658203 0)"/>
     <use xlink:href="#DejaVuSans-6e" transform="translate(122.181641 0)"/>
     <use xlink:href="#DejaVuSans-6e" transform="translate(185.560547 0)"/>
     <use xlink:href="#DejaVuSans-20" transform="translate(248.939453 0)"/>
     <use xlink:href="#DejaVuSans-44" transform="translate(280.726562 0)"/>
     <use xlink:href="#DejaVuSans-69" transform="translate(357.728516 0)"/>
     <use xlink:href="#DejaVuSans-61" transform="translate(385.511719 0)"/>
     <use xlink:href="#DejaVuSans-67" transform="translate(446.791016 0)"/>
     <use xlink:href="#DejaVuSans-72" transform="translate(510.267578 0)"/>
     <use xlink:href="#DejaVuSans-61" transform="translate(551.380859 0)"/>
     <use xlink:href="#DejaVuSans-6d" transform="translate(612.660156 0)"/>
     <use xlink:href="#DejaVuSans-20" transform="translate(710.072266 0)"/>
     <use xlink:href="#DejaVuSans-6f" transform="translate(741.859375 0)"/>
     <use xlink:href="#DejaVuSans-66" transform="translate(803.041016 0)"/>
     <use xlink:href="#DejaVuSans-20" transform="translate(838.246094 0)"/>
     <use xlink:href="#DejaVuSans-4c" transform="translate(870.033203 0)"/>
     <use xlink:href="#DejaVuSans-65" transform="translate(923.996094 0)"/>
     <use xlink:href="#DejaVuSans-73" transform="translate(985.519531 0)"/>
     <use xlink:href="#DejaVuSans-69" transform="translate(1037.619141 0)"/>
     <use xlink:href="#DejaVuSans-6f" transform="translate(1065.402344 0)"/>
     <use xlink:href="#DejaVuSans-6e" transform="translate(1126.583984 0)"/>
     <use xlink:href="#DejaVuSans-20" transform="translate(1189.962891 0)"/>
     <use xlink:href="#DejaVuSans-61" transform="translate(1221.75 0)"/>
     <use xlink:href="#DejaVuSans-6e" transform="translate(1283.029297 0)"/>
     <use xlink:href="#DejaVuSans-64" transform="translate(1346.408203 0)"/>
     <use xlink:href="#DejaVuSans-20" transform="translate(1409.884766 0)"/>
     <use xlink:href="#DejaVuSans-54" transform="translate(1441.671875 0)"/>
     <use xlink:href="#DejaVuSans-72" transform="translate(1488.005859 0)"/>
     <use xlink:href="#DejaVuSans-65" transform="translate(1526.869141 0)"/>
     <use xlink:href="#DejaVuSans-61" transform="translate(1588.392578 0)"/>
     <use xlink:href="#DejaVuSans-74" transform="translate(1649.671875 0)"/>
     <use xlink:href="#DejaVuSans-6d" transform="translate(1688.880859 0)"/>
     <use xlink:href="#DejaVuSans-65" transform="translate(1786.292969 0)"/>
     <use xlink:href="#DejaVuSans-6e" transform="translate(1847.816406 0)"/>
     <use xlink:href="#DejaVuSans-74" transform="translate(1911.195312 0)"/>
     <use xlink:href="#DejaVuSans-20" transform="translate(1950.404297 0)"/>
     <use xlink:href="#DejaVuSans-46" transform="translate(1982.191406 0)"/>
     <use xlink:href="#DejaVuSans-65" transform="translate(2034.210938 0)"/>
     <use xlink:href="#DejaVuSans-61" transform="translate(2095.734375 0)"/>
     <use xlink:href="#DejaVuSans-74" transform="translate(2157.013672 0)"/>
     <use xlink:href="#DejaVuSans-75" transform="translate(2196.222656 0)"/>
     <use xlink:href="#DejaVuSans-72" transform="translate(2259.601562 0)"/>
     <use xlink:href="#DejaVuSans-65" transform="translate(2298.464844 0)"/>
     <use xlink:href="#DejaVuSans-73" transform="translate(2359.988281 0)"/>
     <use xlink:href="#DejaVuSans-20" transform="translate(2412.087891 0)"/>
     <use xlink:href="#DejaVuSans-28" transform="translate(2443.875 0)"/>
     <use xlink:href="#DejaVuSans-41" transform="translate(2482.888672 0)"/>
     <use xlink:href="#DejaVuSans-4e" transform="translate(2551.296875 0)"/>
     <use xlink:href="#DejaVuSans-4f" transform="translate(2626.101562 0)"/>
     <use xlink:href="#DejaVuSans-56" transform="translate(2703.0625 0)"/>
     <use xlink:href="#DejaVuSans-41" transform="translate(2765.095703 0)"/>
     <use xlink:href="#DejaVuSans-29" transform="translate(2833.503906 0)"/>
    </g>
   </g>
  </g>
 </g>
 <defs>
  <clipPath id="p17e5589d66">
   <rect x="58.43875" y="25.3575" width="357.12" height="244.62192"/>
  </clipPath>
 </defs>
</svg>
