<?xml version="1.0" encoding="UTF-8" standalone="no"?>
<svg width="369.006mm" height="222.25mm"
 viewBox="0 0 1046 630"
 xmlns="http://www.w3.org/2000/svg" xmlns:xlink="http://www.w3.org/1999/xlink"  version="1.2" baseProfile="tiny">
<title>Qt SVG Document</title>
<desc>MATLAB, The MathWorks, Inc. Version 25.1.0.2973910 R2025a Update 1</desc>
<defs>
</defs>
<g fill="none" stroke="black" stroke-width="1" fill-rule="evenodd" stroke-linecap="square" stroke-linejoin="bevel" >

<g fill="#000000" fill-opacity="1" stroke="none" transform="matrix(0.75,0,0,0.75,0,0)"
font-family="MS Shell Dlg 2" font-size="8.25" font-weight="400" font-style="normal" 
>
<path vector-effect="none" fill-rule="evenodd" d="M0,0 L1395,0 L1395,841 L0,841 L0,0"/>
</g>

<g fill="#d9d9d9" fill-opacity="1" stroke="#d9d9d9" stroke-opacity="1" stroke-width="1" stroke-linecap="square" stroke-linejoin="bevel" transform="matrix(0.75,0,0,0.75,467.25,42.9375)"
font-family="Helvetica" font-size="14" font-weight="700" font-style="normal" 
>
<text fill="#d9d9d9" fill-opacity="1" stroke="none" xml:space="preserve" x="0" y="0" font-family="Helvetica" font-size="14" font-weight="700" font-style="normal" 
 >Treatment Effect Proportions</text>
</g>

<g fill="#3d26a8" fill-opacity="1" stroke="none" transform="matrix(7.5e-05,0,0,7.5e-05,0,0)"
font-family="Helvetica" font-size="14" font-weight="700" font-style="normal" 
>
<path vector-effect="none" fill-rule="evenodd" d="M4.42777e+06,3.44048e+06 L4.39526e+06,3.61304e+06 L7.215e+06,4.055e+06 L7.215e+06,1.20083e+06 L7.03948e+06,1.20624e+06 L6.86462e+06,1.22242e+06 L6.69109e+06,1.24933e+06 L6.51954e+06,1.28686e+06 L6.35062e+06,1.33487e+06 L6.18498e+06,1.39317e+06 L6.02323e+06,1.46155e+06 L5.866e+06,1.53975e+06 L5.71387e+06,1.62747e+06 L5.56743e+06,1.72438e+06 L5.42722e+06,1.83012e+06 L5.29378e+06,1.94427e+06 L5.16761e+06,2.06641e+06 L5.0492e+06,2.19609e+06 L4.93898e+06,2.3328e+06 L4.83738e+06,2.47602e+06 L4.74477e+06,2.62523e+06 L4.66152e+06,2.77985e+06 L4.58794e+06,2.93929e+06 L4.5243e+06,3.10296e+06 L4.47084e+06,3.27023e+06 L4.42777e+06,3.44048e+06"/>
</g>

<g fill="none" stroke="#d9d9d9" stroke-opacity="1" stroke-width="0.666667" stroke-linecap="square" stroke-linejoin="miter" stroke-miterlimit="2" transform="matrix(0.75,0,0,0.75,0,0)"
font-family="Helvetica" font-size="14" font-weight="700" font-style="normal" 
>
<polyline fill="none" vector-effect="none" points="721.5,405.5 721.5,120.083 703.948,120.624 686.462,122.242 669.109,124.933 651.954,128.686 635.062,133.487 618.498,139.317 602.323,146.155 586.6,153.975 571.387,162.747 556.743,172.438 542.722,183.012 529.378,194.427 516.761,206.641 504.92,219.609 493.898,233.279 483.738,247.602 474.477,262.523 466.152,277.985 458.794,293.929 452.43,310.296 447.084,327.023 442.777,344.048 439.526,361.304 721.5,405.5 721.5,405.5 " />
</g>

<g fill="#13beb8" fill-opacity="1" stroke="none" transform="matrix(7.5e-05,0,0,7.5e-05,0,0)"
font-family="Helvetica" font-size="14" font-weight="700" font-style="normal" 
>
<path vector-effect="none" fill-rule="evenodd" d="M5.91578e+06,6.59632e+06 L6.07752e+06,6.67271e+06 L6.24373e+06,6.73882e+06 L6.41376e+06,6.7944e+06 L6.58694e+06,6.83921e+06 L6.76258e+06,6.87308e+06 L6.94e+06,6.89589e+06 L7.1185e+06,6.90754e+06 L7.29738e+06,6.90798e+06 L7.47594e+06,6.89721e+06 L7.65347e+06,6.87529e+06 L7.82928e+06,6.84228e+06 L8.00267e+06,6.79833e+06 L8.17297e+06,6.7436e+06 L8.33951e+06,6.67831e+06 L8.50163e+06,6.60271e+06 L8.6587e+06,6.51711e+06 L8.8101e+06,6.42184e+06 L8.95523e+06,6.31727e+06 L9.09353e+06,6.20382e+06 L7.215e+06,4.055e+06 L4.39526e+06,3.61304e+06 L4.37311e+06,3.79055e+06 L4.36213e+06,3.96909e+06 L4.36235e+06,4.14797e+06 L4.37377e+06,4.32648e+06 L4.39636e+06,4.50393e+06 L4.43002e+06,4.67962e+06 L4.47462e+06,4.85285e+06 L4.52998e+06,5.02294e+06 L4.59588e+06,5.18924e+06 L4.67208e+06,5.35108e+06 L4.75826e+06,5.50783e+06 L4.8541e+06,5.65887e+06 L4.9592e+06,5.80361e+06 L5.07317e+06,5.94149e+06 L5.19555e+06,6.07195e+06 L5.32586e+06,6.19449e+06 L5.4636e+06,6.30863e+06 L5.60821e+06,6.41392e+06 L5.75913e+06,6.50994e+06 L5.91578e+06,6.59632e+06"/>
</g>

<g fill="none" stroke="#d9d9d9" stroke-opacity="1" stroke-width="0.666667" stroke-linecap="square" stroke-linejoin="miter" stroke-miterlimit="2" transform="matrix(0.75,0,0,0.75,0,0)"
font-family="Helvetica" font-size="14" font-weight="700" font-style="normal" 
>
<polyline fill="none" vector-effect="none" points="721.5,405.5 439.526,361.304 437.311,379.055 436.213,396.909 436.235,414.797 437.377,432.648 439.636,450.393 443.002,467.962 447.462,485.285 452.998,502.294 459.588,518.924 467.208,535.108 475.826,550.783 485.41,565.887 495.92,580.361 507.317,594.149 519.555,607.195 532.586,619.449 546.36,630.863 560.821,641.392 575.913,650.994 591.578,659.632 607.752,667.271 624.373,673.882 641.376,679.44 658.694,683.921 676.258,687.308 694,689.589 711.85,690.753 729.738,690.798 747.594,689.721 765.347,687.529 782.927,684.228 800.267,679.833 817.297,674.36 833.951,667.831 850.163,660.271 865.87,651.711 881.01,642.184 895.523,631.727 909.353,620.382 721.5,405.5 721.5,405.5 " />
</g>

<g fill="#f9fa14" fill-opacity="1" stroke="none" transform="matrix(7.5e-05,0,0,7.5e-05,0,0)"
font-family="Helvetica" font-size="14" font-weight="700" font-style="normal" 
>
<path vector-effect="none" fill-rule="evenodd" d="M7.215e+06,1.20083e+06 L7.215e+06,4.055e+06 L9.09353e+06,6.20382e+06 L9.22333e+06,6.08303e+06 L9.34538e+06,5.95441e+06 L9.45921e+06,5.81846e+06 L9.56438e+06,5.67571e+06 L9.66048e+06,5.5267e+06 L9.74715e+06,5.37201e+06 L9.82404e+06,5.21224e+06 L9.89086e+06,5.048e+06 L9.94735e+06,4.87993e+06 L9.9933e+06,4.70868e+06 L1.00285e+07,4.5349e+06 L1.00529e+07,4.35927e+06 L1.00663e+07,4.18247e+06 L1.00687e+07,4.00517e+06 L1.00601e+07,3.82807e+06 L1.00406e+07,3.65185e+06 L1.00101e+07,3.47718e+06 L9.96879e+06,3.30474e+06 L9.91689e+06,3.13519e+06 L9.85456e+06,2.9692e+06 L9.78205e+06,2.80739e+06 L9.69963e+06,2.6504e+06 L9.60762e+06,2.49883e+06 L9.50637e+06,2.35327e+06 L9.39628e+06,2.21427e+06 L9.27778e+06,2.08238e+06 L9.15131e+06,1.9581e+06 L9.01737e+06,1.84192e+06 L8.87647e+06,1.73427e+06 L8.72916e+06,1.63558e+06 L8.57601e+06,1.54623e+06 L8.41761e+06,1.46656e+06 L8.25456e+06,1.39688e+06 L8.0875e+06,1.33746e+06 L7.91708e+06,1.28853e+06 L7.74394e+06,1.25027e+06 L7.56877e+06,1.22284e+06 L7.39223e+06,1.20634e+06 L7.215e+06,1.20083e+06"/>
</g>

<g fill="none" stroke="#d9d9d9" stroke-opacity="1" stroke-width="0.666667" stroke-linecap="square" stroke-linejoin="miter" stroke-miterlimit="2" transform="matrix(0.75,0,0,0.75,0,0)"
font-family="Helvetica" font-size="14" font-weight="700" font-style="normal" 
>
<polyline fill="none" vector-effect="none" points="721.5,405.5 909.353,620.382 922.333,608.303 934.538,595.441 945.921,581.846 956.438,567.571 966.048,552.67 974.714,537.201 982.404,521.224 989.086,504.8 994.735,487.993 999.33,470.868 1002.85,453.49 1005.29,435.927 1006.63,418.247 1006.87,400.517 1006.01,382.807 1004.06,365.185 1001.01,347.718 996.879,330.474 991.689,313.519 985.456,296.919 978.205,280.739 969.963,265.04 960.762,249.883 950.637,235.327 939.628,221.427 927.778,208.238 915.131,195.81 901.737,184.192 887.647,173.427 872.916,163.558 857.601,154.623 841.761,146.656 825.456,139.688 808.75,133.746 791.708,128.853 774.394,125.027 756.877,122.284 739.223,120.634 721.5,120.083 721.5,405.5 721.5,405.5 " />
</g>

<g fill="#d9d9d9" fill-opacity="1" stroke="#d9d9d9" stroke-opacity="1" stroke-width="1" stroke-linecap="square" stroke-linejoin="bevel" transform="matrix(0.75,0,0,0.75,349.056,122.946)"
font-family="Helvetica" font-size="13" font-weight="400" font-style="normal" 
>
<text fill="#d9d9d9" fill-opacity="1" stroke="none" xml:space="preserve" x="0" y="0" font-family="Helvetica" font-size="13" font-weight="400" font-style="normal" 
 >Restored</text>
</g>

<g fill="#d9d9d9" fill-opacity="1" stroke="#d9d9d9" stroke-opacity="1" stroke-width="1" stroke-linecap="square" stroke-linejoin="bevel" transform="matrix(0.75,0,0,0.75,383.922,519.322)"
font-family="Helvetica" font-size="13" font-weight="400" font-style="normal" 
>
<text fill="#d9d9d9" fill-opacity="1" stroke="none" xml:space="preserve" x="0" y="0" font-family="Helvetica" font-size="13" font-weight="400" font-style="normal" 
 >Worsened</text>
</g>

<g fill="#d9d9d9" fill-opacity="1" stroke="#d9d9d9" stroke-opacity="1" stroke-width="1" stroke-linecap="square" stroke-linejoin="bevel" transform="matrix(0.75,0,0,0.75,761.566,224.728)"
font-family="Helvetica" font-size="13" font-weight="400" font-style="normal" 
>
<text fill="#d9d9d9" fill-opacity="1" stroke="none" xml:space="preserve" x="0" y="0" font-family="Helvetica" font-size="13" font-weight="400" font-style="normal" 
 >No effect</text>
</g>
</g>
</svg>
