<?xml version="1.0" encoding="utf-8" standalone="no"?>
<!DOCTYPE svg PUBLIC "-//W3C//DTD SVG 1.1//EN"
  "http://www.w3.org/Graphics/SVG/1.1/DTD/svg11.dtd">
<svg xmlns:xlink="http://www.w3.org/1999/xlink" width="720pt" height="432pt" viewBox="0 0 720 432" xmlns="http://www.w3.org/2000/svg" version="1.1">
 <metadata>
  <rdf:RDF xmlns:dc="http://purl.org/dc/elements/1.1/" xmlns:cc="http://creativecommons.org/ns#" xmlns:rdf="http://www.w3.org/1999/02/22-rdf-syntax-ns#">
   <cc:Work>
    <dc:type rdf:resource="http://purl.org/dc/dcmitype/StillImage"/>
    <dc:date>2025-06-15T16:43:50.297336</dc:date>
    <dc:format>image/svg+xml</dc:format>
    <dc:creator>
     <cc:Agent>
      <dc:title>Matplotlib v3.10.1, https://matplotlib.org/</dc:title>
     </cc:Agent>
    </dc:creator>
   </cc:Work>
  </rdf:RDF>
 </metadata>
 <defs>
  <style type="text/css">*{stroke-linejoin: round; stroke-linecap: butt}</style>
 </defs>
 <g id="figure_1">
  <g id="patch_1">
   <path d="M 0 432 
L 720 432 
L 720 0 
L 0 0 
z
" style="fill: #ffffff"/>
  </g>
  <g id="axes_1">
   <g id="patch_2">
    <path d="M 58.25 302.112 
L 657.88 302.112 
L 657.88 28.32 
L 58.25 28.32 
z
" style="fill: #ffffff"/>
   </g>
   <g id="patch_3">
    <path d="M 73.24075 447.339862 
L 83.234583 447.339862 
L 83.234583 49.891164 
L 73.24075 49.891164 
z
" clip-path="url(#p4e80efd063)" style="fill: #1b9e77"/>
   </g>
   <g id="patch_4">
    <path d="M 133.20375 447.339862 
L 143.197583 447.339862 
L 143.197583 50.430443 
L 133.20375 50.430443 
z
" clip-path="url(#p4e80efd063)" style="fill: #1b9e77"/>
   </g>
   <g id="patch_5">
    <path d="M 193.16675 447.339862 
L 203.160583 447.339862 
L 203.160583 51.509002 
L 193.16675 51.509002 
z
" clip-path="url(#p4e80efd063)" style="fill: #1b9e77"/>
   </g>
   <g id="patch_6">
    <path d="M 253.12975 447.339862 
L 263.123583 447.339862 
L 263.123583 90.337097 
L 253.12975 90.337097 
z
" clip-path="url(#p4e80efd063)" style="fill: #1b9e77"/>
   </g>
   <g id="patch_7">
    <path d="M 313.09275 447.339862 
L 323.086583 447.339862 
L 323.086583 67.148096 
L 313.09275 67.148096 
z
" clip-path="url(#p4e80efd063)" style="fill: #1b9e77"/>
   </g>
   <g id="patch_8">
    <path d="M 373.05575 447.339862 
L 383.049583 447.339862 
L 383.049583 48.273327 
L 373.05575 48.273327 
z
" clip-path="url(#p4e80efd063)" style="fill: #1b9e77"/>
   </g>
   <g id="patch_9">
    <path d="M 433.01875 447.339862 
L 443.012583 447.339862 
L 443.012583 50.538299 
L 433.01875 50.538299 
z
" clip-path="url(#p4e80efd063)" style="fill: #1b9e77"/>
   </g>
   <g id="patch_10">
    <path d="M 492.98175 447.339862 
L 502.975583 447.339862 
L 502.975583 116.222495 
L 492.98175 116.222495 
z
" clip-path="url(#p4e80efd063)" style="fill: #1b9e77"/>
   </g>
   <g id="patch_11">
    <path d="M 552.94475 447.339862 
L 562.938583 447.339862 
L 562.938583 100.044121 
L 552.94475 100.044121 
z
" clip-path="url(#p4e80efd063)" style="fill: #1b9e77"/>
   </g>
   <g id="patch_12">
    <path d="M 612.90775 447.339862 
L 622.901583 447.339862 
L 622.901583 120.267087 
L 612.90775 120.267087 
z
" clip-path="url(#p4e80efd063)" style="fill: #1b9e77"/>
   </g>
   <g id="patch_13">
    <path d="M 83.234583 447.339862 
L 93.228417 447.339862 
L 93.228417 138.171153 
L 83.234583 138.171153 
z
" clip-path="url(#p4e80efd063)" style="fill: #d95f02"/>
   </g>
   <g id="patch_14">
    <path d="M 143.197583 447.339862 
L 153.191417 447.339862 
L 153.191417 165.836171 
L 143.197583 165.836171 
z
" clip-path="url(#p4e80efd063)" style="fill: #d95f02"/>
   </g>
   <g id="patch_15">
    <path d="M 203.160583 447.339862 
L 213.154417 447.339862 
L 213.154417 150.304933 
L 203.160583 150.304933 
z
" clip-path="url(#p4e80efd063)" style="fill: #d95f02"/>
   </g>
   <g id="patch_16">
    <path d="M 263.123583 447.339862 
L 273.117417 447.339862 
L 273.117417 152.300265 
L 263.123583 152.300265 
z
" clip-path="url(#p4e80efd063)" style="fill: #d95f02"/>
   </g>
   <g id="patch_17">
    <path d="M 323.086583 447.339862 
L 333.080417 447.339862 
L 333.080417 179.102437 
L 323.086583 179.102437 
z
" clip-path="url(#p4e80efd063)" style="fill: #d95f02"/>
   </g>
   <g id="patch_18">
    <path d="M 383.049583 447.339862 
L 393.043417 447.339862 
L 393.043417 122.478131 
L 383.049583 122.478131 
z
" clip-path="url(#p4e80efd063)" style="fill: #d95f02"/>
   </g>
   <g id="patch_19">
    <path d="M 443.012583 447.339862 
L 453.006417 447.339862 
L 453.006417 130.189822 
L 443.012583 130.189822 
z
" clip-path="url(#p4e80efd063)" style="fill: #d95f02"/>
   </g>
   <g id="patch_20">
    <path d="M 502.975583 447.339862 
L 512.969417 447.339862 
L 512.969417 282.158673 
L 502.975583 282.158673 
z
" clip-path="url(#p4e80efd063)" style="fill: #d95f02"/>
   </g>
   <g id="patch_21">
    <path d="M 562.938583 447.339862 
L 572.932417 447.339862 
L 572.932417 255.464358 
L 562.938583 255.464358 
z
" clip-path="url(#p4e80efd063)" style="fill: #d95f02"/>
   </g>
   <g id="patch_22">
    <path d="M 622.901583 447.339862 
L 632.895417 447.339862 
L 632.895417 246.943748 
L 622.901583 246.943748 
z
" clip-path="url(#p4e80efd063)" style="fill: #d95f02"/>
   </g>
   <g id="patch_23">
    <path d="M 93.228417 447.339862 
L 103.22225 447.339862 
L 103.22225 107.244782 
L 93.228417 107.244782 
z
" clip-path="url(#p4e80efd063)" style="fill: #7570b3"/>
   </g>
   <g id="patch_24">
    <path d="M 153.191417 447.339862 
L 163.18525 447.339862 
L 163.18525 124.809873 
L 153.191417 124.809873 
z
" clip-path="url(#p4e80efd063)" style="fill: #7570b3"/>
   </g>
   <g id="patch_25">
    <path d="M 213.154417 447.339862 
L 223.14825 447.339862 
L 223.14825 116.384279 
L 213.154417 116.384279 
z
" clip-path="url(#p4e80efd063)" style="fill: #7570b3"/>
   </g>
   <g id="patch_26">
    <path d="M 273.117417 447.339862 
L 283.11125 447.339862 
L 283.11125 132.144069 
L 273.117417 132.144069 
z
" clip-path="url(#p4e80efd063)" style="fill: #7570b3"/>
   </g>
   <g id="patch_27">
    <path d="M 333.080417 447.339862 
L 343.07425 447.339862 
L 343.07425 140.371927 
L 333.080417 140.371927 
z
" clip-path="url(#p4e80efd063)" style="fill: #7570b3"/>
   </g>
   <g id="patch_28">
    <path d="M 393.043417 447.339862 
L 403.03725 447.339862 
L 403.03725 94.784867 
L 393.043417 94.784867 
z
" clip-path="url(#p4e80efd063)" style="fill: #7570b3"/>
   </g>
   <g id="patch_29">
    <path d="M 453.006417 447.339862 
L 463.00025 447.339862 
L 463.00025 101.523288 
L 453.006417 101.523288 
z
" clip-path="url(#p4e80efd063)" style="fill: #7570b3"/>
   </g>
   <g id="patch_30">
    <path d="M 512.969417 447.339862 
L 522.96325 447.339862 
L 522.96325 237.760597 
L 512.969417 237.760597 
z
" clip-path="url(#p4e80efd063)" style="fill: #7570b3"/>
   </g>
   <g id="patch_31">
    <path d="M 572.932417 447.339862 
L 582.92625 447.339862 
L 582.92625 210.288179 
L 572.932417 210.288179 
z
" clip-path="url(#p4e80efd063)" style="fill: #7570b3"/>
   </g>
   <g id="patch_32">
    <path d="M 632.895417 447.339862 
L 642.88925 447.339862 
L 642.88925 204.058221 
L 632.895417 204.058221 
z
" clip-path="url(#p4e80efd063)" style="fill: #7570b3"/>
   </g>
   <g id="matplotlib.axis_1">
    <g id="xtick_1">
     <g id="line2d_1">
      <path d="M 88.2315 302.112 
L 88.2315 28.32 
" clip-path="url(#p4e80efd063)" style="fill: none; stroke: #b0b0b0; stroke-width: 0.8; stroke-linecap: square"/>
     </g>
     <g id="line2d_2">
      <defs>
       <path id="m735ea69cbb" d="M 0 0 
L 0 3.5 
" style="stroke: #000000; stroke-width: 0.8"/>
      </defs>
      <g>
       <use xlink:href="#m735ea69cbb" x="88.2315" y="302.112" style="stroke: #000000; stroke-width: 0.8"/>
      </g>
     </g>
     <g id="text_1">
      <!-- TTR -->
      <g transform="translate(91.54275 331.898875) rotate(-90) scale(0.12 -0.12)">
       <defs>
        <path id="DejaVuSans-54" d="M -19 4666 
L 3928 4666 
L 3928 4134 
L 2272 4134 
L 2272 0 
L 1638 0 
L 1638 4134 
L -19 4134 
L -19 4666 
z
" transform="scale(0.015625)"/>
        <path id="DejaVuSans-52" d="M 2841 2188 
Q 3044 2119 3236 1894 
Q 3428 1669 3622 1275 
L 4263 0 
L 3584 0 
L 2988 1197 
Q 2756 1666 2539 1819 
Q 2322 1972 1947 1972 
L 1259 1972 
L 1259 0 
L 628 0 
L 628 4666 
L 2053 4666 
Q 2853 4666 3247 4331 
Q 3641 3997 3641 3322 
Q 3641 2881 3436 2590 
Q 3231 2300 2841 2188 
z
M 1259 4147 
L 1259 2491 
L 2053 2491 
Q 2509 2491 2742 2702 
Q 2975 2913 2975 3322 
Q 2975 3731 2742 3939 
Q 2509 4147 2053 4147 
L 1259 4147 
z
" transform="scale(0.015625)"/>
       </defs>
       <use xlink:href="#DejaVuSans-54"/>
       <use xlink:href="#DejaVuSans-54" transform="translate(59.333984 0)"/>
       <use xlink:href="#DejaVuSans-52" transform="translate(120.417969 0)"/>
      </g>
     </g>
    </g>
    <g id="xtick_2">
     <g id="line2d_3">
      <path d="M 148.1945 302.112 
L 148.1945 28.32 
" clip-path="url(#p4e80efd063)" style="fill: none; stroke: #b0b0b0; stroke-width: 0.8; stroke-linecap: square"/>
     </g>
     <g id="line2d_4">
      <g>
       <use xlink:href="#m735ea69cbb" x="148.1945" y="302.112" style="stroke: #000000; stroke-width: 0.8"/>
      </g>
     </g>
     <g id="text_2">
      <!-- STGCN -->
      <g transform="translate(151.50575 350.7145) rotate(-90) scale(0.12 -0.12)">
       <defs>
        <path id="DejaVuSans-53" d="M 3425 4513 
L 3425 3897 
Q 3066 4069 2747 4153 
Q 2428 4238 2131 4238 
Q 1616 4238 1336 4038 
Q 1056 3838 1056 3469 
Q 1056 3159 1242 3001 
Q 1428 2844 1947 2747 
L 2328 2669 
Q 3034 2534 3370 2195 
Q 3706 1856 3706 1288 
Q 3706 609 3251 259 
Q 2797 -91 1919 -91 
Q 1588 -91 1214 -16 
Q 841 59 441 206 
L 441 856 
Q 825 641 1194 531 
Q 1563 422 1919 422 
Q 2459 422 2753 634 
Q 3047 847 3047 1241 
Q 3047 1584 2836 1778 
Q 2625 1972 2144 2069 
L 1759 2144 
Q 1053 2284 737 2584 
Q 422 2884 422 3419 
Q 422 4038 858 4394 
Q 1294 4750 2059 4750 
Q 2388 4750 2728 4690 
Q 3069 4631 3425 4513 
z
" transform="scale(0.015625)"/>
        <path id="DejaVuSans-47" d="M 3809 666 
L 3809 1919 
L 2778 1919 
L 2778 2438 
L 4434 2438 
L 4434 434 
Q 4069 175 3628 42 
Q 3188 -91 2688 -91 
Q 1594 -91 976 548 
Q 359 1188 359 2328 
Q 359 3472 976 4111 
Q 1594 4750 2688 4750 
Q 3144 4750 3555 4637 
Q 3966 4525 4313 4306 
L 4313 3634 
Q 3963 3931 3569 4081 
Q 3175 4231 2741 4231 
Q 1884 4231 1454 3753 
Q 1025 3275 1025 2328 
Q 1025 1384 1454 906 
Q 1884 428 2741 428 
Q 3075 428 3337 486 
Q 3600 544 3809 666 
z
" transform="scale(0.015625)"/>
        <path id="DejaVuSans-43" d="M 4122 4306 
L 4122 3641 
Q 3803 3938 3442 4084 
Q 3081 4231 2675 4231 
Q 1875 4231 1450 3742 
Q 1025 3253 1025 2328 
Q 1025 1406 1450 917 
Q 1875 428 2675 428 
Q 3081 428 3442 575 
Q 3803 722 4122 1019 
L 4122 359 
Q 3791 134 3420 21 
Q 3050 -91 2638 -91 
Q 1578 -91 968 557 
Q 359 1206 359 2328 
Q 359 3453 968 4101 
Q 1578 4750 2638 4750 
Q 3056 4750 3426 4639 
Q 3797 4528 4122 4306 
z
" transform="scale(0.015625)"/>
        <path id="DejaVuSans-4e" d="M 628 4666 
L 1478 4666 
L 3547 763 
L 3547 4666 
L 4159 4666 
L 4159 0 
L 3309 0 
L 1241 3903 
L 1241 0 
L 628 0 
L 628 4666 
z
" transform="scale(0.015625)"/>
       </defs>
       <use xlink:href="#DejaVuSans-53"/>
       <use xlink:href="#DejaVuSans-54" transform="translate(63.476562 0)"/>
       <use xlink:href="#DejaVuSans-47" transform="translate(124.560547 0)"/>
       <use xlink:href="#DejaVuSans-43" transform="translate(202.050781 0)"/>
       <use xlink:href="#DejaVuSans-4e" transform="translate(271.875 0)"/>
      </g>
     </g>
    </g>
    <g id="xtick_3">
     <g id="line2d_5">
      <path d="M 208.1575 302.112 
L 208.1575 28.32 
" clip-path="url(#p4e80efd063)" style="fill: none; stroke: #b0b0b0; stroke-width: 0.8; stroke-linecap: square"/>
     </g>
     <g id="line2d_6">
      <g>
       <use xlink:href="#m735ea69cbb" x="208.1575" y="302.112" style="stroke: #000000; stroke-width: 0.8"/>
      </g>
     </g>
     <g id="text_3">
      <!-- LSTM -->
      <g transform="translate(211.46875 341.0995) rotate(-90) scale(0.12 -0.12)">
       <defs>
        <path id="DejaVuSans-4c" d="M 628 4666 
L 1259 4666 
L 1259 531 
L 3531 531 
L 3531 0 
L 628 0 
L 628 4666 
z
" transform="scale(0.015625)"/>
        <path id="DejaVuSans-4d" d="M 628 4666 
L 1569 4666 
L 2759 1491 
L 3956 4666 
L 4897 4666 
L 4897 0 
L 4281 0 
L 4281 4097 
L 3078 897 
L 2444 897 
L 1241 4097 
L 1241 0 
L 628 0 
L 628 4666 
z
" transform="scale(0.015625)"/>
       </defs>
       <use xlink:href="#DejaVuSans-4c"/>
       <use xlink:href="#DejaVuSans-53" transform="translate(55.712891 0)"/>
       <use xlink:href="#DejaVuSans-54" transform="translate(119.189453 0)"/>
       <use xlink:href="#DejaVuSans-4d" transform="translate(180.273438 0)"/>
      </g>
     </g>
    </g>
    <g id="xtick_4">
     <g id="line2d_7">
      <path d="M 268.1205 302.112 
L 268.1205 28.32 
" clip-path="url(#p4e80efd063)" style="fill: none; stroke: #b0b0b0; stroke-width: 0.8; stroke-linecap: square"/>
     </g>
     <g id="line2d_8">
      <g>
       <use xlink:href="#m735ea69cbb" x="268.1205" y="302.112" style="stroke: #000000; stroke-width: 0.8"/>
      </g>
     </g>
     <g id="text_4">
      <!-- LSN -->
      <g transform="translate(271.43175 332.393875) rotate(-90) scale(0.12 -0.12)">
       <use xlink:href="#DejaVuSans-4c"/>
       <use xlink:href="#DejaVuSans-53" transform="translate(55.712891 0)"/>
       <use xlink:href="#DejaVuSans-4e" transform="translate(119.189453 0)"/>
      </g>
     </g>
    </g>
    <g id="xtick_5">
     <g id="line2d_9">
      <path d="M 328.0835 302.112 
L 328.0835 28.32 
" clip-path="url(#p4e80efd063)" style="fill: none; stroke: #b0b0b0; stroke-width: 0.8; stroke-linecap: square"/>
     </g>
     <g id="line2d_10">
      <g>
       <use xlink:href="#m735ea69cbb" x="328.0835" y="302.112" style="stroke: #000000; stroke-width: 0.8"/>
      </g>
     </g>
     <g id="text_5">
      <!-- GRU -->
      <g transform="translate(331.39475 335.53075) rotate(-90) scale(0.12 -0.12)">
       <defs>
        <path id="DejaVuSans-55" d="M 556 4666 
L 1191 4666 
L 1191 1831 
Q 1191 1081 1462 751 
Q 1734 422 2344 422 
Q 2950 422 3222 751 
Q 3494 1081 3494 1831 
L 3494 4666 
L 4128 4666 
L 4128 1753 
Q 4128 841 3676 375 
Q 3225 -91 2344 -91 
Q 1459 -91 1007 375 
Q 556 841 556 1753 
L 556 4666 
z
" transform="scale(0.015625)"/>
       </defs>
       <use xlink:href="#DejaVuSans-47"/>
       <use xlink:href="#DejaVuSans-52" transform="translate(77.490234 0)"/>
       <use xlink:href="#DejaVuSans-55" transform="translate(146.972656 0)"/>
      </g>
     </g>
    </g>
    <g id="xtick_6">
     <g id="line2d_11">
      <path d="M 388.0465 302.112 
L 388.0465 28.32 
" clip-path="url(#p4e80efd063)" style="fill: none; stroke: #b0b0b0; stroke-width: 0.8; stroke-linecap: square"/>
     </g>
     <g id="line2d_12">
      <g>
       <use xlink:href="#m735ea69cbb" x="388.0465" y="302.112" style="stroke: #000000; stroke-width: 0.8"/>
      </g>
     </g>
     <g id="text_6">
      <!-- GRU_Attention -->
      <g transform="translate(391.190875 396.912625) rotate(-90) scale(0.12 -0.12)">
       <defs>
        <path id="DejaVuSans-5f" d="M 3263 -1063 
L 3263 -1509 
L -63 -1509 
L -63 -1063 
L 3263 -1063 
z
" transform="scale(0.015625)"/>
        <path id="DejaVuSans-41" d="M 2188 4044 
L 1331 1722 
L 3047 1722 
L 2188 4044 
z
M 1831 4666 
L 2547 4666 
L 4325 0 
L 3669 0 
L 3244 1197 
L 1141 1197 
L 716 0 
L 50 0 
L 1831 4666 
z
" transform="scale(0.015625)"/>
        <path id="DejaVuSans-74" d="M 1172 4494 
L 1172 3500 
L 2356 3500 
L 2356 3053 
L 1172 3053 
L 1172 1153 
Q 1172 725 1289 603 
Q 1406 481 1766 481 
L 2356 481 
L 2356 0 
L 1766 0 
Q 1100 0 847 248 
Q 594 497 594 1153 
L 594 3053 
L 172 3053 
L 172 3500 
L 594 3500 
L 594 4494 
L 1172 4494 
z
" transform="scale(0.015625)"/>
        <path id="DejaVuSans-65" d="M 3597 1894 
L 3597 1613 
L 953 1613 
Q 991 1019 1311 708 
Q 1631 397 2203 397 
Q 2534 397 2845 478 
Q 3156 559 3463 722 
L 3463 178 
Q 3153 47 2828 -22 
Q 2503 -91 2169 -91 
Q 1331 -91 842 396 
Q 353 884 353 1716 
Q 353 2575 817 3079 
Q 1281 3584 2069 3584 
Q 2775 3584 3186 3129 
Q 3597 2675 3597 1894 
z
M 3022 2063 
Q 3016 2534 2758 2815 
Q 2500 3097 2075 3097 
Q 1594 3097 1305 2825 
Q 1016 2553 972 2059 
L 3022 2063 
z
" transform="scale(0.015625)"/>
        <path id="DejaVuSans-6e" d="M 3513 2113 
L 3513 0 
L 2938 0 
L 2938 2094 
Q 2938 2591 2744 2837 
Q 2550 3084 2163 3084 
Q 1697 3084 1428 2787 
Q 1159 2491 1159 1978 
L 1159 0 
L 581 0 
L 581 3500 
L 1159 3500 
L 1159 2956 
Q 1366 3272 1645 3428 
Q 1925 3584 2291 3584 
Q 2894 3584 3203 3211 
Q 3513 2838 3513 2113 
z
" transform="scale(0.015625)"/>
        <path id="DejaVuSans-69" d="M 603 3500 
L 1178 3500 
L 1178 0 
L 603 0 
L 603 3500 
z
M 603 4863 
L 1178 4863 
L 1178 4134 
L 603 4134 
L 603 4863 
z
" transform="scale(0.015625)"/>
        <path id="DejaVuSans-6f" d="M 1959 3097 
Q 1497 3097 1228 2736 
Q 959 2375 959 1747 
Q 959 1119 1226 758 
Q 1494 397 1959 397 
Q 2419 397 2687 759 
Q 2956 1122 2956 1747 
Q 2956 2369 2687 2733 
Q 2419 3097 1959 3097 
z
M 1959 3584 
Q 2709 3584 3137 3096 
Q 3566 2609 3566 1747 
Q 3566 888 3137 398 
Q 2709 -91 1959 -91 
Q 1206 -91 779 398 
Q 353 888 353 1747 
Q 353 2609 779 3096 
Q 1206 3584 1959 3584 
z
" transform="scale(0.015625)"/>
       </defs>
       <use xlink:href="#DejaVuSans-47"/>
       <use xlink:href="#DejaVuSans-52" transform="translate(77.490234 0)"/>
       <use xlink:href="#DejaVuSans-55" transform="translate(146.972656 0)"/>
       <use xlink:href="#DejaVuSans-5f" transform="translate(220.166016 0)"/>
       <use xlink:href="#DejaVuSans-41" transform="translate(270.166016 0)"/>
       <use xlink:href="#DejaVuSans-74" transform="translate(336.824219 0)"/>
       <use xlink:href="#DejaVuSans-74" transform="translate(376.033203 0)"/>
       <use xlink:href="#DejaVuSans-65" transform="translate(415.242188 0)"/>
       <use xlink:href="#DejaVuSans-6e" transform="translate(476.765625 0)"/>
       <use xlink:href="#DejaVuSans-74" transform="translate(540.144531 0)"/>
       <use xlink:href="#DejaVuSans-69" transform="translate(579.353516 0)"/>
       <use xlink:href="#DejaVuSans-6f" transform="translate(607.136719 0)"/>
       <use xlink:href="#DejaVuSans-6e" transform="translate(668.318359 0)"/>
      </g>
     </g>
    </g>
    <g id="xtick_7">
     <g id="line2d_13">
      <path d="M 448.0095 302.112 
L 448.0095 28.32 
" clip-path="url(#p4e80efd063)" style="fill: none; stroke: #b0b0b0; stroke-width: 0.8; stroke-linecap: square"/>
     </g>
     <g id="line2d_14">
      <g>
       <use xlink:href="#m735ea69cbb" x="448.0095" y="302.112" style="stroke: #000000; stroke-width: 0.8"/>
      </g>
     </g>
     <g id="text_7">
      <!-- GRU_Conv -->
      <g transform="translate(451.047938 371.960125) rotate(-90) scale(0.12 -0.12)">
       <defs>
        <path id="DejaVuSans-76" d="M 191 3500 
L 800 3500 
L 1894 563 
L 2988 3500 
L 3597 3500 
L 2284 0 
L 1503 0 
L 191 3500 
z
" transform="scale(0.015625)"/>
       </defs>
       <use xlink:href="#DejaVuSans-47"/>
       <use xlink:href="#DejaVuSans-52" transform="translate(77.490234 0)"/>
       <use xlink:href="#DejaVuSans-55" transform="translate(146.972656 0)"/>
       <use xlink:href="#DejaVuSans-5f" transform="translate(220.166016 0)"/>
       <use xlink:href="#DejaVuSans-43" transform="translate(270.166016 0)"/>
       <use xlink:href="#DejaVuSans-6f" transform="translate(339.990234 0)"/>
       <use xlink:href="#DejaVuSans-6e" transform="translate(401.171875 0)"/>
       <use xlink:href="#DejaVuSans-76" transform="translate(464.550781 0)"/>
      </g>
     </g>
    </g>
    <g id="xtick_8">
     <g id="line2d_15">
      <path d="M 507.9725 302.112 
L 507.9725 28.32 
" clip-path="url(#p4e80efd063)" style="fill: none; stroke: #b0b0b0; stroke-width: 0.8; stroke-linecap: square"/>
     </g>
     <g id="line2d_16">
      <g>
       <use xlink:href="#m735ea69cbb" x="507.9725" y="302.112" style="stroke: #000000; stroke-width: 0.8"/>
      </g>
     </g>
     <g id="text_8">
      <!-- CNN -->
      <g transform="translate(511.28375 335.446375) rotate(-90) scale(0.12 -0.12)">
       <use xlink:href="#DejaVuSans-43"/>
       <use xlink:href="#DejaVuSans-4e" transform="translate(69.824219 0)"/>
       <use xlink:href="#DejaVuSans-4e" transform="translate(144.628906 0)"/>
      </g>
     </g>
    </g>
    <g id="xtick_9">
     <g id="line2d_17">
      <path d="M 567.9355 302.112 
L 567.9355 28.32 
" clip-path="url(#p4e80efd063)" style="fill: none; stroke: #b0b0b0; stroke-width: 0.8; stroke-linecap: square"/>
     </g>
     <g id="line2d_18">
      <g>
       <use xlink:href="#m735ea69cbb" x="567.9355" y="302.112" style="stroke: #000000; stroke-width: 0.8"/>
      </g>
     </g>
     <g id="text_9">
      <!-- MLP -->
      <g transform="translate(571.24675 333.387625) rotate(-90) scale(0.12 -0.12)">
       <defs>
        <path id="DejaVuSans-50" d="M 1259 4147 
L 1259 2394 
L 2053 2394 
Q 2494 2394 2734 2622 
Q 2975 2850 2975 3272 
Q 2975 3691 2734 3919 
Q 2494 4147 2053 4147 
L 1259 4147 
z
M 628 4666 
L 2053 4666 
Q 2838 4666 3239 4311 
Q 3641 3956 3641 3272 
Q 3641 2581 3239 2228 
Q 2838 1875 2053 1875 
L 1259 1875 
L 1259 0 
L 628 0 
L 628 4666 
z
" transform="scale(0.015625)"/>
       </defs>
       <use xlink:href="#DejaVuSans-4d"/>
       <use xlink:href="#DejaVuSans-4c" transform="translate(86.279297 0)"/>
       <use xlink:href="#DejaVuSans-50" transform="translate(141.992188 0)"/>
      </g>
     </g>
    </g>
    <g id="xtick_10">
     <g id="line2d_19">
      <path d="M 627.8985 302.112 
L 627.8985 28.32 
" clip-path="url(#p4e80efd063)" style="fill: none; stroke: #b0b0b0; stroke-width: 0.8; stroke-linecap: square"/>
     </g>
     <g id="line2d_20">
      <g>
       <use xlink:href="#m735ea69cbb" x="627.8985" y="302.112" style="stroke: #000000; stroke-width: 0.8"/>
      </g>
     </g>
     <g id="text_10">
      <!-- Parametric -->
      <g transform="translate(631.20975 374.090125) rotate(-90) scale(0.12 -0.12)">
       <defs>
        <path id="DejaVuSans-61" d="M 2194 1759 
Q 1497 1759 1228 1600 
Q 959 1441 959 1056 
Q 959 750 1161 570 
Q 1363 391 1709 391 
Q 2188 391 2477 730 
Q 2766 1069 2766 1631 
L 2766 1759 
L 2194 1759 
z
M 3341 1997 
L 3341 0 
L 2766 0 
L 2766 531 
Q 2569 213 2275 61 
Q 1981 -91 1556 -91 
Q 1019 -91 701 211 
Q 384 513 384 1019 
Q 384 1609 779 1909 
Q 1175 2209 1959 2209 
L 2766 2209 
L 2766 2266 
Q 2766 2663 2505 2880 
Q 2244 3097 1772 3097 
Q 1472 3097 1187 3025 
Q 903 2953 641 2809 
L 641 3341 
Q 956 3463 1253 3523 
Q 1550 3584 1831 3584 
Q 2591 3584 2966 3190 
Q 3341 2797 3341 1997 
z
" transform="scale(0.015625)"/>
        <path id="DejaVuSans-72" d="M 2631 2963 
Q 2534 3019 2420 3045 
Q 2306 3072 2169 3072 
Q 1681 3072 1420 2755 
Q 1159 2438 1159 1844 
L 1159 0 
L 581 0 
L 581 3500 
L 1159 3500 
L 1159 2956 
Q 1341 3275 1631 3429 
Q 1922 3584 2338 3584 
Q 2397 3584 2469 3576 
Q 2541 3569 2628 3553 
L 2631 2963 
z
" transform="scale(0.015625)"/>
        <path id="DejaVuSans-6d" d="M 3328 2828 
Q 3544 3216 3844 3400 
Q 4144 3584 4550 3584 
Q 5097 3584 5394 3201 
Q 5691 2819 5691 2113 
L 5691 0 
L 5113 0 
L 5113 2094 
Q 5113 2597 4934 2840 
Q 4756 3084 4391 3084 
Q 3944 3084 3684 2787 
Q 3425 2491 3425 1978 
L 3425 0 
L 2847 0 
L 2847 2094 
Q 2847 2600 2669 2842 
Q 2491 3084 2119 3084 
Q 1678 3084 1418 2786 
Q 1159 2488 1159 1978 
L 1159 0 
L 581 0 
L 581 3500 
L 1159 3500 
L 1159 2956 
Q 1356 3278 1631 3431 
Q 1906 3584 2284 3584 
Q 2666 3584 2933 3390 
Q 3200 3197 3328 2828 
z
" transform="scale(0.015625)"/>
        <path id="DejaVuSans-63" d="M 3122 3366 
L 3122 2828 
Q 2878 2963 2633 3030 
Q 2388 3097 2138 3097 
Q 1578 3097 1268 2742 
Q 959 2388 959 1747 
Q 959 1106 1268 751 
Q 1578 397 2138 397 
Q 2388 397 2633 464 
Q 2878 531 3122 666 
L 3122 134 
Q 2881 22 2623 -34 
Q 2366 -91 2075 -91 
Q 1284 -91 818 406 
Q 353 903 353 1747 
Q 353 2603 823 3093 
Q 1294 3584 2113 3584 
Q 2378 3584 2631 3529 
Q 2884 3475 3122 3366 
z
" transform="scale(0.015625)"/>
       </defs>
       <use xlink:href="#DejaVuSans-50"/>
       <use xlink:href="#DejaVuSans-61" transform="translate(55.802734 0)"/>
       <use xlink:href="#DejaVuSans-72" transform="translate(117.082031 0)"/>
       <use xlink:href="#DejaVuSans-61" transform="translate(158.195312 0)"/>
       <use xlink:href="#DejaVuSans-6d" transform="translate(219.474609 0)"/>
       <use xlink:href="#DejaVuSans-65" transform="translate(316.886719 0)"/>
       <use xlink:href="#DejaVuSans-74" transform="translate(378.410156 0)"/>
       <use xlink:href="#DejaVuSans-72" transform="translate(417.619141 0)"/>
       <use xlink:href="#DejaVuSans-69" transform="translate(458.732422 0)"/>
       <use xlink:href="#DejaVuSans-63" transform="translate(486.515625 0)"/>
      </g>
     </g>
    </g>
    <g id="text_11">
     <!-- Model -->
     <g transform="translate(337.046406 411.550437) scale(0.14 -0.14)">
      <defs>
       <path id="DejaVuSans-64" d="M 2906 2969 
L 2906 4863 
L 3481 4863 
L 3481 0 
L 2906 0 
L 2906 525 
Q 2725 213 2448 61 
Q 2172 -91 1784 -91 
Q 1150 -91 751 415 
Q 353 922 353 1747 
Q 353 2572 751 3078 
Q 1150 3584 1784 3584 
Q 2172 3584 2448 3432 
Q 2725 3281 2906 2969 
z
M 947 1747 
Q 947 1113 1208 752 
Q 1469 391 1925 391 
Q 2381 391 2643 752 
Q 2906 1113 2906 1747 
Q 2906 2381 2643 2742 
Q 2381 3103 1925 3103 
Q 1469 3103 1208 2742 
Q 947 2381 947 1747 
z
" transform="scale(0.015625)"/>
       <path id="DejaVuSans-6c" d="M 603 4863 
L 1178 4863 
L 1178 0 
L 603 0 
L 603 4863 
z
" transform="scale(0.015625)"/>
      </defs>
      <use xlink:href="#DejaVuSans-4d"/>
      <use xlink:href="#DejaVuSans-6f" transform="translate(86.279297 0)"/>
      <use xlink:href="#DejaVuSans-64" transform="translate(147.460938 0)"/>
      <use xlink:href="#DejaVuSans-65" transform="translate(210.9375 0)"/>
      <use xlink:href="#DejaVuSans-6c" transform="translate(272.460938 0)"/>
     </g>
    </g>
   </g>
   <g id="matplotlib.axis_2">
    <g id="ytick_1">
     <g id="line2d_21">
      <path d="M 58.25 286.850401 
L 657.88 286.850401 
" clip-path="url(#p4e80efd063)" style="fill: none; stroke: #b0b0b0; stroke-width: 0.8; stroke-linecap: square"/>
     </g>
     <g id="line2d_22">
      <defs>
       <path id="m1ed9f23fef" d="M 0 0 
L -3.5 0 
" style="stroke: #000000; stroke-width: 0.8"/>
      </defs>
      <g>
       <use xlink:href="#m1ed9f23fef" x="58.25" y="286.850401" style="stroke: #000000; stroke-width: 0.8"/>
      </g>
     </g>
     <g id="text_12">
      <!-- 40 -->
      <g transform="translate(35.98 291.409463) scale(0.12 -0.12)">
       <defs>
        <path id="DejaVuSans-34" d="M 2419 4116 
L 825 1625 
L 2419 1625 
L 2419 4116 
z
M 2253 4666 
L 3047 4666 
L 3047 1625 
L 3713 1625 
L 3713 1100 
L 3047 1100 
L 3047 0 
L 2419 0 
L 2419 1100 
L 313 1100 
L 313 1709 
L 2253 4666 
z
" transform="scale(0.015625)"/>
        <path id="DejaVuSans-30" d="M 2034 4250 
Q 1547 4250 1301 3770 
Q 1056 3291 1056 2328 
Q 1056 1369 1301 889 
Q 1547 409 2034 409 
Q 2525 409 2770 889 
Q 3016 1369 3016 2328 
Q 3016 3291 2770 3770 
Q 2525 4250 2034 4250 
z
M 2034 4750 
Q 2819 4750 3233 4129 
Q 3647 3509 3647 2328 
Q 3647 1150 3233 529 
Q 2819 -91 2034 -91 
Q 1250 -91 836 529 
Q 422 1150 422 2328 
Q 422 3509 836 4129 
Q 1250 4750 2034 4750 
z
" transform="scale(0.015625)"/>
       </defs>
       <use xlink:href="#DejaVuSans-34"/>
       <use xlink:href="#DejaVuSans-30" transform="translate(63.623047 0)"/>
      </g>
     </g>
    </g>
    <g id="ytick_2">
     <g id="line2d_23">
      <path d="M 58.25 246.728036 
L 657.88 246.728036 
" clip-path="url(#p4e80efd063)" style="fill: none; stroke: #b0b0b0; stroke-width: 0.8; stroke-linecap: square"/>
     </g>
     <g id="line2d_24">
      <g>
       <use xlink:href="#m1ed9f23fef" x="58.25" y="246.728036" style="stroke: #000000; stroke-width: 0.8"/>
      </g>
     </g>
     <g id="text_13">
      <!-- 50 -->
      <g transform="translate(35.98 251.287098) scale(0.12 -0.12)">
       <defs>
        <path id="DejaVuSans-35" d="M 691 4666 
L 3169 4666 
L 3169 4134 
L 1269 4134 
L 1269 2991 
Q 1406 3038 1543 3061 
Q 1681 3084 1819 3084 
Q 2600 3084 3056 2656 
Q 3513 2228 3513 1497 
Q 3513 744 3044 326 
Q 2575 -91 1722 -91 
Q 1428 -91 1123 -41 
Q 819 9 494 109 
L 494 744 
Q 775 591 1075 516 
Q 1375 441 1709 441 
Q 2250 441 2565 725 
Q 2881 1009 2881 1497 
Q 2881 1984 2565 2268 
Q 2250 2553 1709 2553 
Q 1456 2553 1204 2497 
Q 953 2441 691 2322 
L 691 4666 
z
" transform="scale(0.015625)"/>
       </defs>
       <use xlink:href="#DejaVuSans-35"/>
       <use xlink:href="#DejaVuSans-30" transform="translate(63.623047 0)"/>
      </g>
     </g>
    </g>
    <g id="ytick_3">
     <g id="line2d_25">
      <path d="M 58.25 206.60567 
L 657.88 206.60567 
" clip-path="url(#p4e80efd063)" style="fill: none; stroke: #b0b0b0; stroke-width: 0.8; stroke-linecap: square"/>
     </g>
     <g id="line2d_26">
      <g>
       <use xlink:href="#m1ed9f23fef" x="58.25" y="206.60567" style="stroke: #000000; stroke-width: 0.8"/>
      </g>
     </g>
     <g id="text_14">
      <!-- 60 -->
      <g transform="translate(35.98 211.164733) scale(0.12 -0.12)">
       <defs>
        <path id="DejaVuSans-36" d="M 2113 2584 
Q 1688 2584 1439 2293 
Q 1191 2003 1191 1497 
Q 1191 994 1439 701 
Q 1688 409 2113 409 
Q 2538 409 2786 701 
Q 3034 994 3034 1497 
Q 3034 2003 2786 2293 
Q 2538 2584 2113 2584 
z
M 3366 4563 
L 3366 3988 
Q 3128 4100 2886 4159 
Q 2644 4219 2406 4219 
Q 1781 4219 1451 3797 
Q 1122 3375 1075 2522 
Q 1259 2794 1537 2939 
Q 1816 3084 2150 3084 
Q 2853 3084 3261 2657 
Q 3669 2231 3669 1497 
Q 3669 778 3244 343 
Q 2819 -91 2113 -91 
Q 1303 -91 875 529 
Q 447 1150 447 2328 
Q 447 3434 972 4092 
Q 1497 4750 2381 4750 
Q 2619 4750 2861 4703 
Q 3103 4656 3366 4563 
z
" transform="scale(0.015625)"/>
       </defs>
       <use xlink:href="#DejaVuSans-36"/>
       <use xlink:href="#DejaVuSans-30" transform="translate(63.623047 0)"/>
      </g>
     </g>
    </g>
    <g id="ytick_4">
     <g id="line2d_27">
      <path d="M 58.25 166.483305 
L 657.88 166.483305 
" clip-path="url(#p4e80efd063)" style="fill: none; stroke: #b0b0b0; stroke-width: 0.8; stroke-linecap: square"/>
     </g>
     <g id="line2d_28">
      <g>
       <use xlink:href="#m1ed9f23fef" x="58.25" y="166.483305" style="stroke: #000000; stroke-width: 0.8"/>
      </g>
     </g>
     <g id="text_15">
      <!-- 70 -->
      <g transform="translate(35.98 171.042367) scale(0.12 -0.12)">
       <defs>
        <path id="DejaVuSans-37" d="M 525 4666 
L 3525 4666 
L 3525 4397 
L 1831 0 
L 1172 0 
L 2766 4134 
L 525 4134 
L 525 4666 
z
" transform="scale(0.015625)"/>
       </defs>
       <use xlink:href="#DejaVuSans-37"/>
       <use xlink:href="#DejaVuSans-30" transform="translate(63.623047 0)"/>
      </g>
     </g>
    </g>
    <g id="ytick_5">
     <g id="line2d_29">
      <path d="M 58.25 126.360939 
L 657.88 126.360939 
" clip-path="url(#p4e80efd063)" style="fill: none; stroke: #b0b0b0; stroke-width: 0.8; stroke-linecap: square"/>
     </g>
     <g id="line2d_30">
      <g>
       <use xlink:href="#m1ed9f23fef" x="58.25" y="126.360939" style="stroke: #000000; stroke-width: 0.8"/>
      </g>
     </g>
     <g id="text_16">
      <!-- 80 -->
      <g transform="translate(35.98 130.920002) scale(0.12 -0.12)">
       <defs>
        <path id="DejaVuSans-38" d="M 2034 2216 
Q 1584 2216 1326 1975 
Q 1069 1734 1069 1313 
Q 1069 891 1326 650 
Q 1584 409 2034 409 
Q 2484 409 2743 651 
Q 3003 894 3003 1313 
Q 3003 1734 2745 1975 
Q 2488 2216 2034 2216 
z
M 1403 2484 
Q 997 2584 770 2862 
Q 544 3141 544 3541 
Q 544 4100 942 4425 
Q 1341 4750 2034 4750 
Q 2731 4750 3128 4425 
Q 3525 4100 3525 3541 
Q 3525 3141 3298 2862 
Q 3072 2584 2669 2484 
Q 3125 2378 3379 2068 
Q 3634 1759 3634 1313 
Q 3634 634 3220 271 
Q 2806 -91 2034 -91 
Q 1263 -91 848 271 
Q 434 634 434 1313 
Q 434 1759 690 2068 
Q 947 2378 1403 2484 
z
M 1172 3481 
Q 1172 3119 1398 2916 
Q 1625 2713 2034 2713 
Q 2441 2713 2670 2916 
Q 2900 3119 2900 3481 
Q 2900 3844 2670 4047 
Q 2441 4250 2034 4250 
Q 1625 4250 1398 4047 
Q 1172 3844 1172 3481 
z
" transform="scale(0.015625)"/>
       </defs>
       <use xlink:href="#DejaVuSans-38"/>
       <use xlink:href="#DejaVuSans-30" transform="translate(63.623047 0)"/>
      </g>
     </g>
    </g>
    <g id="ytick_6">
     <g id="line2d_31">
      <path d="M 58.25 86.238574 
L 657.88 86.238574 
" clip-path="url(#p4e80efd063)" style="fill: none; stroke: #b0b0b0; stroke-width: 0.8; stroke-linecap: square"/>
     </g>
     <g id="line2d_32">
      <g>
       <use xlink:href="#m1ed9f23fef" x="58.25" y="86.238574" style="stroke: #000000; stroke-width: 0.8"/>
      </g>
     </g>
     <g id="text_17">
      <!-- 90 -->
      <g transform="translate(35.98 90.797637) scale(0.12 -0.12)">
       <defs>
        <path id="DejaVuSans-39" d="M 703 97 
L 703 672 
Q 941 559 1184 500 
Q 1428 441 1663 441 
Q 2288 441 2617 861 
Q 2947 1281 2994 2138 
Q 2813 1869 2534 1725 
Q 2256 1581 1919 1581 
Q 1219 1581 811 2004 
Q 403 2428 403 3163 
Q 403 3881 828 4315 
Q 1253 4750 1959 4750 
Q 2769 4750 3195 4129 
Q 3622 3509 3622 2328 
Q 3622 1225 3098 567 
Q 2575 -91 1691 -91 
Q 1453 -91 1209 -44 
Q 966 3 703 97 
z
M 1959 2075 
Q 2384 2075 2632 2365 
Q 2881 2656 2881 3163 
Q 2881 3666 2632 3958 
Q 2384 4250 1959 4250 
Q 1534 4250 1286 3958 
Q 1038 3666 1038 3163 
Q 1038 2656 1286 2365 
Q 1534 2075 1959 2075 
z
" transform="scale(0.015625)"/>
       </defs>
       <use xlink:href="#DejaVuSans-39"/>
       <use xlink:href="#DejaVuSans-30" transform="translate(63.623047 0)"/>
      </g>
     </g>
    </g>
    <g id="ytick_7">
     <g id="line2d_33">
      <path d="M 58.25 46.116209 
L 657.88 46.116209 
" clip-path="url(#p4e80efd063)" style="fill: none; stroke: #b0b0b0; stroke-width: 0.8; stroke-linecap: square"/>
     </g>
     <g id="line2d_34">
      <g>
       <use xlink:href="#m1ed9f23fef" x="58.25" y="46.116209" style="stroke: #000000; stroke-width: 0.8"/>
      </g>
     </g>
     <g id="text_18">
      <!-- 100 -->
      <g transform="translate(28.345 50.675271) scale(0.12 -0.12)">
       <defs>
        <path id="DejaVuSans-31" d="M 794 531 
L 1825 531 
L 1825 4091 
L 703 3866 
L 703 4441 
L 1819 4666 
L 2450 4666 
L 2450 531 
L 3481 531 
L 3481 0 
L 794 0 
L 794 531 
z
" transform="scale(0.015625)"/>
       </defs>
       <use xlink:href="#DejaVuSans-31"/>
       <use xlink:href="#DejaVuSans-30" transform="translate(63.623047 0)"/>
       <use xlink:href="#DejaVuSans-30" transform="translate(127.246094 0)"/>
      </g>
     </g>
    </g>
    <g id="text_19">
     <!-- Value [%] -->
     <g transform="translate(21.433438 198.777719) rotate(-90) scale(0.14 -0.14)">
      <defs>
       <path id="DejaVuSans-56" d="M 1831 0 
L 50 4666 
L 709 4666 
L 2188 738 
L 3669 4666 
L 4325 4666 
L 2547 0 
L 1831 0 
z
" transform="scale(0.015625)"/>
       <path id="DejaVuSans-75" d="M 544 1381 
L 544 3500 
L 1119 3500 
L 1119 1403 
Q 1119 906 1312 657 
Q 1506 409 1894 409 
Q 2359 409 2629 706 
Q 2900 1003 2900 1516 
L 2900 3500 
L 3475 3500 
L 3475 0 
L 2900 0 
L 2900 538 
Q 2691 219 2414 64 
Q 2138 -91 1772 -91 
Q 1169 -91 856 284 
Q 544 659 544 1381 
z
M 1991 3584 
L 1991 3584 
z
" transform="scale(0.015625)"/>
       <path id="DejaVuSans-20" transform="scale(0.015625)"/>
       <path id="DejaVuSans-5b" d="M 550 4863 
L 1875 4863 
L 1875 4416 
L 1125 4416 
L 1125 -397 
L 1875 -397 
L 1875 -844 
L 550 -844 
L 550 4863 
z
" transform="scale(0.015625)"/>
       <path id="DejaVuSans-25" d="M 4653 2053 
Q 4381 2053 4226 1822 
Q 4072 1591 4072 1178 
Q 4072 772 4226 539 
Q 4381 306 4653 306 
Q 4919 306 5073 539 
Q 5228 772 5228 1178 
Q 5228 1588 5073 1820 
Q 4919 2053 4653 2053 
z
M 4653 2450 
Q 5147 2450 5437 2106 
Q 5728 1763 5728 1178 
Q 5728 594 5436 251 
Q 5144 -91 4653 -91 
Q 4153 -91 3862 251 
Q 3572 594 3572 1178 
Q 3572 1766 3864 2108 
Q 4156 2450 4653 2450 
z
M 1428 4353 
Q 1159 4353 1004 4120 
Q 850 3888 850 3481 
Q 850 3069 1003 2837 
Q 1156 2606 1428 2606 
Q 1700 2606 1854 2837 
Q 2009 3069 2009 3481 
Q 2009 3884 1853 4118 
Q 1697 4353 1428 4353 
z
M 4250 4750 
L 4750 4750 
L 1831 -91 
L 1331 -91 
L 4250 4750 
z
M 1428 4750 
Q 1922 4750 2215 4408 
Q 2509 4066 2509 3481 
Q 2509 2891 2217 2550 
Q 1925 2209 1428 2209 
Q 931 2209 642 2551 
Q 353 2894 353 3481 
Q 353 4063 643 4406 
Q 934 4750 1428 4750 
z
" transform="scale(0.015625)"/>
       <path id="DejaVuSans-5d" d="M 1947 4863 
L 1947 -844 
L 622 -844 
L 622 -397 
L 1369 -397 
L 1369 4416 
L 622 4416 
L 622 4863 
L 1947 4863 
z
" transform="scale(0.015625)"/>
      </defs>
      <use xlink:href="#DejaVuSans-56"/>
      <use xlink:href="#DejaVuSans-61" transform="translate(60.658203 0)"/>
      <use xlink:href="#DejaVuSans-6c" transform="translate(121.9375 0)"/>
      <use xlink:href="#DejaVuSans-75" transform="translate(149.720703 0)"/>
      <use xlink:href="#DejaVuSans-65" transform="translate(213.099609 0)"/>
      <use xlink:href="#DejaVuSans-20" transform="translate(274.623047 0)"/>
      <use xlink:href="#DejaVuSans-5b" transform="translate(306.410156 0)"/>
      <use xlink:href="#DejaVuSans-25" transform="translate(345.423828 0)"/>
      <use xlink:href="#DejaVuSans-5d" transform="translate(440.443359 0)"/>
     </g>
    </g>
   </g>
   <g id="LineCollection_1">
    <path d="M 78.237667 53.666118 
L 78.237667 46.11621 
" clip-path="url(#p4e80efd063)" style="fill: none; stroke: #000000; stroke-width: 1.5"/>
    <path d="M 138.200667 53.481067 
L 138.200667 47.37982 
" clip-path="url(#p4e80efd063)" style="fill: none; stroke: #000000; stroke-width: 1.5"/>
    <path d="M 198.163667 53.7542 
L 198.163667 49.263804 
" clip-path="url(#p4e80efd063)" style="fill: none; stroke: #000000; stroke-width: 1.5"/>
    <path d="M 258.126667 91.415655 
L 258.126667 89.258539 
" clip-path="url(#p4e80efd063)" style="fill: none; stroke: #000000; stroke-width: 1.5"/>
    <path d="M 318.089667 70.711693 
L 318.089667 63.584498 
" clip-path="url(#p4e80efd063)" style="fill: none; stroke: #000000; stroke-width: 1.5"/>
    <path d="M 378.052667 50.430443 
L 378.052667 46.11621 
" clip-path="url(#p4e80efd063)" style="fill: none; stroke: #000000; stroke-width: 1.5"/>
    <path d="M 438.015667 52.388689 
L 438.015667 48.687909 
" clip-path="url(#p4e80efd063)" style="fill: none; stroke: #000000; stroke-width: 1.5"/>
    <path d="M 497.978667 128.999351 
L 497.978667 103.445639 
" clip-path="url(#p4e80efd063)" style="fill: none; stroke: #000000; stroke-width: 1.5"/>
    <path d="M 557.941667 105.751315 
L 557.941667 94.336928 
" clip-path="url(#p4e80efd063)" style="fill: none; stroke: #000000; stroke-width: 1.5"/>
    <path d="M 617.904667 138.386517 
L 617.904667 102.147657 
" clip-path="url(#p4e80efd063)" style="fill: none; stroke: #000000; stroke-width: 1.5"/>
   </g>
   <g id="line2d_35">
    <defs>
     <path id="mb2779fe936" d="M 4 0 
L -4 -0 
" style="stroke: #000000"/>
    </defs>
    <g clip-path="url(#p4e80efd063)">
     <use xlink:href="#mb2779fe936" x="78.237667" y="53.666118" style="stroke: #000000"/>
     <use xlink:href="#mb2779fe936" x="138.200667" y="53.481067" style="stroke: #000000"/>
     <use xlink:href="#mb2779fe936" x="198.163667" y="53.7542" style="stroke: #000000"/>
     <use xlink:href="#mb2779fe936" x="258.126667" y="91.415655" style="stroke: #000000"/>
     <use xlink:href="#mb2779fe936" x="318.089667" y="70.711693" style="stroke: #000000"/>
     <use xlink:href="#mb2779fe936" x="378.052667" y="50.430443" style="stroke: #000000"/>
     <use xlink:href="#mb2779fe936" x="438.015667" y="52.388689" style="stroke: #000000"/>
     <use xlink:href="#mb2779fe936" x="497.978667" y="128.999351" style="stroke: #000000"/>
     <use xlink:href="#mb2779fe936" x="557.941667" y="105.751315" style="stroke: #000000"/>
     <use xlink:href="#mb2779fe936" x="617.904667" y="138.386517" style="stroke: #000000"/>
    </g>
   </g>
   <g id="line2d_36">
    <g clip-path="url(#p4e80efd063)">
     <use xlink:href="#mb2779fe936" x="78.237667" y="46.11621" style="stroke: #000000"/>
     <use xlink:href="#mb2779fe936" x="138.200667" y="47.37982" style="stroke: #000000"/>
     <use xlink:href="#mb2779fe936" x="198.163667" y="49.263804" style="stroke: #000000"/>
     <use xlink:href="#mb2779fe936" x="258.126667" y="89.258539" style="stroke: #000000"/>
     <use xlink:href="#mb2779fe936" x="318.089667" y="63.584498" style="stroke: #000000"/>
     <use xlink:href="#mb2779fe936" x="378.052667" y="46.11621" style="stroke: #000000"/>
     <use xlink:href="#mb2779fe936" x="438.015667" y="48.687909" style="stroke: #000000"/>
     <use xlink:href="#mb2779fe936" x="497.978667" y="103.445639" style="stroke: #000000"/>
     <use xlink:href="#mb2779fe936" x="557.941667" y="94.336928" style="stroke: #000000"/>
     <use xlink:href="#mb2779fe936" x="617.904667" y="102.147657" style="stroke: #000000"/>
    </g>
   </g>
   <g id="LineCollection_2">
    <path d="M 88.2315 141.137188 
L 88.2315 135.205118 
" clip-path="url(#p4e80efd063)" style="fill: none; stroke: #000000; stroke-width: 1.5"/>
    <path d="M 148.1945 167.901452 
L 148.1945 163.770889 
" clip-path="url(#p4e80efd063)" style="fill: none; stroke: #000000; stroke-width: 1.5"/>
    <path d="M 208.1575 152.118279 
L 208.1575 148.491586 
" clip-path="url(#p4e80efd063)" style="fill: none; stroke: #000000; stroke-width: 1.5"/>
    <path d="M 268.1205 153.321104 
L 268.1205 151.279426 
" clip-path="url(#p4e80efd063)" style="fill: none; stroke: #000000; stroke-width: 1.5"/>
    <path d="M 328.0835 181.762637 
L 328.0835 176.442236 
" clip-path="url(#p4e80efd063)" style="fill: none; stroke: #000000; stroke-width: 1.5"/>
    <path d="M 388.0465 124.635247 
L 388.0465 120.321014 
" clip-path="url(#p4e80efd063)" style="fill: none; stroke: #000000; stroke-width: 1.5"/>
    <path d="M 448.0095 131.445698 
L 448.0095 128.933946 
" clip-path="url(#p4e80efd063)" style="fill: none; stroke: #000000; stroke-width: 1.5"/>
    <path d="M 507.9725 288.0887 
L 507.9725 276.228646 
" clip-path="url(#p4e80efd063)" style="fill: none; stroke: #000000; stroke-width: 1.5"/>
    <path d="M 567.9355 259.629976 
L 567.9355 251.298739 
" clip-path="url(#p4e80efd063)" style="fill: none; stroke: #000000; stroke-width: 1.5"/>
    <path d="M 627.8985 259.416843 
L 627.8985 234.470652 
" clip-path="url(#p4e80efd063)" style="fill: none; stroke: #000000; stroke-width: 1.5"/>
   </g>
   <g id="line2d_37">
    <g clip-path="url(#p4e80efd063)">
     <use xlink:href="#mb2779fe936" x="88.2315" y="141.137188" style="stroke: #000000"/>
     <use xlink:href="#mb2779fe936" x="148.1945" y="167.901452" style="stroke: #000000"/>
     <use xlink:href="#mb2779fe936" x="208.1575" y="152.118279" style="stroke: #000000"/>
     <use xlink:href="#mb2779fe936" x="268.1205" y="153.321104" style="stroke: #000000"/>
     <use xlink:href="#mb2779fe936" x="328.0835" y="181.762637" style="stroke: #000000"/>
     <use xlink:href="#mb2779fe936" x="388.0465" y="124.635247" style="stroke: #000000"/>
     <use xlink:href="#mb2779fe936" x="448.0095" y="131.445698" style="stroke: #000000"/>
     <use xlink:href="#mb2779fe936" x="507.9725" y="288.0887" style="stroke: #000000"/>
     <use xlink:href="#mb2779fe936" x="567.9355" y="259.629976" style="stroke: #000000"/>
     <use xlink:href="#mb2779fe936" x="627.8985" y="259.416843" style="stroke: #000000"/>
    </g>
   </g>
   <g id="line2d_38">
    <g clip-path="url(#p4e80efd063)">
     <use xlink:href="#mb2779fe936" x="88.2315" y="135.205118" style="stroke: #000000"/>
     <use xlink:href="#mb2779fe936" x="148.1945" y="163.770889" style="stroke: #000000"/>
     <use xlink:href="#mb2779fe936" x="208.1575" y="148.491586" style="stroke: #000000"/>
     <use xlink:href="#mb2779fe936" x="268.1205" y="151.279426" style="stroke: #000000"/>
     <use xlink:href="#mb2779fe936" x="328.0835" y="176.442236" style="stroke: #000000"/>
     <use xlink:href="#mb2779fe936" x="388.0465" y="120.321014" style="stroke: #000000"/>
     <use xlink:href="#mb2779fe936" x="448.0095" y="128.933946" style="stroke: #000000"/>
     <use xlink:href="#mb2779fe936" x="507.9725" y="276.228646" style="stroke: #000000"/>
     <use xlink:href="#mb2779fe936" x="567.9355" y="251.298739" style="stroke: #000000"/>
     <use xlink:href="#mb2779fe936" x="627.8985" y="234.470652" style="stroke: #000000"/>
    </g>
   </g>
   <g id="LineCollection_3">
    <path d="M 98.225333 110.542089 
L 98.225333 103.947476 
" clip-path="url(#p4e80efd063)" style="fill: none; stroke: #000000; stroke-width: 1.5"/>
    <path d="M 158.188333 127.259886 
L 158.188333 122.35986 
" clip-path="url(#p4e80efd063)" style="fill: none; stroke: #000000; stroke-width: 1.5"/>
    <path d="M 218.151333 118.367917 
L 218.151333 114.400641 
" clip-path="url(#p4e80efd063)" style="fill: none; stroke: #000000; stroke-width: 1.5"/>
    <path d="M 278.114333 133.181488 
L 278.114333 131.106649 
" clip-path="url(#p4e80efd063)" style="fill: none; stroke: #000000; stroke-width: 1.5"/>
    <path d="M 338.077333 143.39016 
L 338.077333 137.353694 
" clip-path="url(#p4e80efd063)" style="fill: none; stroke: #000000; stroke-width: 1.5"/>
    <path d="M 398.040333 96.941983 
L 398.040333 92.627751 
" clip-path="url(#p4e80efd063)" style="fill: none; stroke: #000000; stroke-width: 1.5"/>
    <path d="M 458.003333 102.954157 
L 458.003333 100.092419 
" clip-path="url(#p4e80efd063)" style="fill: none; stroke: #000000; stroke-width: 1.5"/>
    <path d="M 517.966333 245.68519 
L 517.966333 229.836003 
" clip-path="url(#p4e80efd063)" style="fill: none; stroke: #000000; stroke-width: 1.5"/>
    <path d="M 577.929333 215.092 
L 577.929333 205.484357 
" clip-path="url(#p4e80efd063)" style="fill: none; stroke: #000000; stroke-width: 1.5"/>
    <path d="M 637.892333 218.592783 
L 637.892333 189.523659 
" clip-path="url(#p4e80efd063)" style="fill: none; stroke: #000000; stroke-width: 1.5"/>
   </g>
   <g id="line2d_39">
    <g clip-path="url(#p4e80efd063)">
     <use xlink:href="#mb2779fe936" x="98.225333" y="110.542089" style="stroke: #000000"/>
     <use xlink:href="#mb2779fe936" x="158.188333" y="127.259886" style="stroke: #000000"/>
     <use xlink:href="#mb2779fe936" x="218.151333" y="118.367917" style="stroke: #000000"/>
     <use xlink:href="#mb2779fe936" x="278.114333" y="133.181488" style="stroke: #000000"/>
     <use xlink:href="#mb2779fe936" x="338.077333" y="143.39016" style="stroke: #000000"/>
     <use xlink:href="#mb2779fe936" x="398.040333" y="96.941983" style="stroke: #000000"/>
     <use xlink:href="#mb2779fe936" x="458.003333" y="102.954157" style="stroke: #000000"/>
     <use xlink:href="#mb2779fe936" x="517.966333" y="245.68519" style="stroke: #000000"/>
     <use xlink:href="#mb2779fe936" x="577.929333" y="215.092" style="stroke: #000000"/>
     <use xlink:href="#mb2779fe936" x="637.892333" y="218.592783" style="stroke: #000000"/>
    </g>
   </g>
   <g id="line2d_40">
    <g clip-path="url(#p4e80efd063)">
     <use xlink:href="#mb2779fe936" x="98.225333" y="103.947476" style="stroke: #000000"/>
     <use xlink:href="#mb2779fe936" x="158.188333" y="122.35986" style="stroke: #000000"/>
     <use xlink:href="#mb2779fe936" x="218.151333" y="114.400641" style="stroke: #000000"/>
     <use xlink:href="#mb2779fe936" x="278.114333" y="131.106649" style="stroke: #000000"/>
     <use xlink:href="#mb2779fe936" x="338.077333" y="137.353694" style="stroke: #000000"/>
     <use xlink:href="#mb2779fe936" x="398.040333" y="92.627751" style="stroke: #000000"/>
     <use xlink:href="#mb2779fe936" x="458.003333" y="100.092419" style="stroke: #000000"/>
     <use xlink:href="#mb2779fe936" x="517.966333" y="229.836003" style="stroke: #000000"/>
     <use xlink:href="#mb2779fe936" x="577.929333" y="205.484357" style="stroke: #000000"/>
     <use xlink:href="#mb2779fe936" x="637.892333" y="189.523659" style="stroke: #000000"/>
    </g>
   </g>
   <g id="patch_33">
    <path d="M 58.25 302.112 
L 58.25 28.32 
" style="fill: none; stroke: #000000; stroke-width: 0.8; stroke-linejoin: miter; stroke-linecap: square"/>
   </g>
   <g id="patch_34">
    <path d="M 657.88 302.112 
L 657.88 28.32 
" style="fill: none; stroke: #000000; stroke-width: 0.8; stroke-linejoin: miter; stroke-linecap: square"/>
   </g>
   <g id="patch_35">
    <path d="M 58.25 302.112 
L 657.88 302.112 
" style="fill: none; stroke: #000000; stroke-width: 0.8; stroke-linejoin: miter; stroke-linecap: square"/>
   </g>
   <g id="patch_36">
    <path d="M 58.25 28.32 
L 657.88 28.32 
" style="fill: none; stroke: #000000; stroke-width: 0.8; stroke-linejoin: miter; stroke-linecap: square"/>
   </g>
   <g id="text_20">
    <!-- Classification Metrics Across All Events -->
    <g transform="translate(202.85 22.32) scale(0.16 -0.16)">
     <defs>
      <path id="DejaVuSans-73" d="M 2834 3397 
L 2834 2853 
Q 2591 2978 2328 3040 
Q 2066 3103 1784 3103 
Q 1356 3103 1142 2972 
Q 928 2841 928 2578 
Q 928 2378 1081 2264 
Q 1234 2150 1697 2047 
L 1894 2003 
Q 2506 1872 2764 1633 
Q 3022 1394 3022 966 
Q 3022 478 2636 193 
Q 2250 -91 1575 -91 
Q 1294 -91 989 -36 
Q 684 19 347 128 
L 347 722 
Q 666 556 975 473 
Q 1284 391 1588 391 
Q 1994 391 2212 530 
Q 2431 669 2431 922 
Q 2431 1156 2273 1281 
Q 2116 1406 1581 1522 
L 1381 1569 
Q 847 1681 609 1914 
Q 372 2147 372 2553 
Q 372 3047 722 3315 
Q 1072 3584 1716 3584 
Q 2034 3584 2315 3537 
Q 2597 3491 2834 3397 
z
" transform="scale(0.015625)"/>
      <path id="DejaVuSans-66" d="M 2375 4863 
L 2375 4384 
L 1825 4384 
Q 1516 4384 1395 4259 
Q 1275 4134 1275 3809 
L 1275 3500 
L 2222 3500 
L 2222 3053 
L 1275 3053 
L 1275 0 
L 697 0 
L 697 3053 
L 147 3053 
L 147 3500 
L 697 3500 
L 697 3744 
Q 697 4328 969 4595 
Q 1241 4863 1831 4863 
L 2375 4863 
z
" transform="scale(0.015625)"/>
      <path id="DejaVuSans-45" d="M 628 4666 
L 3578 4666 
L 3578 4134 
L 1259 4134 
L 1259 2753 
L 3481 2753 
L 3481 2222 
L 1259 2222 
L 1259 531 
L 3634 531 
L 3634 0 
L 628 0 
L 628 4666 
z
" transform="scale(0.015625)"/>
     </defs>
     <use xlink:href="#DejaVuSans-43"/>
     <use xlink:href="#DejaVuSans-6c" transform="translate(69.824219 0)"/>
     <use xlink:href="#DejaVuSans-61" transform="translate(97.607422 0)"/>
     <use xlink:href="#DejaVuSans-73" transform="translate(158.886719 0)"/>
     <use xlink:href="#DejaVuSans-73" transform="translate(210.986328 0)"/>
     <use xlink:href="#DejaVuSans-69" transform="translate(263.085938 0)"/>
     <use xlink:href="#DejaVuSans-66" transform="translate(290.869141 0)"/>
     <use xlink:href="#DejaVuSans-69" transform="translate(326.074219 0)"/>
     <use xlink:href="#DejaVuSans-63" transform="translate(353.857422 0)"/>
     <use xlink:href="#DejaVuSans-61" transform="translate(408.837891 0)"/>
     <use xlink:href="#DejaVuSans-74" transform="translate(470.117188 0)"/>
     <use xlink:href="#DejaVuSans-69" transform="translate(509.326172 0)"/>
     <use xlink:href="#DejaVuSans-6f" transform="translate(537.109375 0)"/>
     <use xlink:href="#DejaVuSans-6e" transform="translate(598.291016 0)"/>
     <use xlink:href="#DejaVuSans-20" transform="translate(661.669922 0)"/>
     <use xlink:href="#DejaVuSans-4d" transform="translate(693.457031 0)"/>
     <use xlink:href="#DejaVuSans-65" transform="translate(779.736328 0)"/>
     <use xlink:href="#DejaVuSans-74" transform="translate(841.259766 0)"/>
     <use xlink:href="#DejaVuSans-72" transform="translate(880.46875 0)"/>
     <use xlink:href="#DejaVuSans-69" transform="translate(921.582031 0)"/>
     <use xlink:href="#DejaVuSans-63" transform="translate(949.365234 0)"/>
     <use xlink:href="#DejaVuSans-73" transform="translate(1004.345703 0)"/>
     <use xlink:href="#DejaVuSans-20" transform="translate(1056.445312 0)"/>
     <use xlink:href="#DejaVuSans-41" transform="translate(1088.232422 0)"/>
     <use xlink:href="#DejaVuSans-63" transform="translate(1154.890625 0)"/>
     <use xlink:href="#DejaVuSans-72" transform="translate(1209.871094 0)"/>
     <use xlink:href="#DejaVuSans-6f" transform="translate(1248.734375 0)"/>
     <use xlink:href="#DejaVuSans-73" transform="translate(1309.916016 0)"/>
     <use xlink:href="#DejaVuSans-73" transform="translate(1362.015625 0)"/>
     <use xlink:href="#DejaVuSans-20" transform="translate(1414.115234 0)"/>
     <use xlink:href="#DejaVuSans-41" transform="translate(1445.902344 0)"/>
     <use xlink:href="#DejaVuSans-6c" transform="translate(1514.310547 0)"/>
     <use xlink:href="#DejaVuSans-6c" transform="translate(1542.09375 0)"/>
     <use xlink:href="#DejaVuSans-20" transform="translate(1569.876953 0)"/>
     <use xlink:href="#DejaVuSans-45" transform="translate(1601.664062 0)"/>
     <use xlink:href="#DejaVuSans-76" transform="translate(1664.847656 0)"/>
     <use xlink:href="#DejaVuSans-65" transform="translate(1724.027344 0)"/>
     <use xlink:href="#DejaVuSans-6e" transform="translate(1785.550781 0)"/>
     <use xlink:href="#DejaVuSans-74" transform="translate(1848.929688 0)"/>
     <use xlink:href="#DejaVuSans-73" transform="translate(1888.138672 0)"/>
    </g>
   </g>
   <g id="legend_1">
    <g id="patch_37">
     <path d="M 68.05 409.16915 
L 316.781875 409.16915 
Q 319.581875 409.16915 319.581875 406.36915 
L 319.581875 366.6704 
Q 319.581875 363.8704 316.781875 363.8704 
L 68.05 363.8704 
Q 65.25 363.8704 65.25 366.6704 
L 65.25 406.36915 
Q 65.25 409.16915 68.05 409.16915 
z
" style="fill: #ffffff; opacity: 0.8; stroke: #cccccc; stroke-linejoin: miter"/>
    </g>
    <g id="patch_38">
     <path d="M 70.85 380.108212 
L 98.85 380.108212 
L 98.85 370.308212 
L 70.85 370.308212 
z
" style="fill: #1b9e77"/>
    </g>
    <g id="text_21">
     <!-- Precision -->
     <g transform="translate(110.05 380.108212) scale(0.14 -0.14)">
      <use xlink:href="#DejaVuSans-50"/>
      <use xlink:href="#DejaVuSans-72" transform="translate(58.552734 0)"/>
      <use xlink:href="#DejaVuSans-65" transform="translate(97.416016 0)"/>
      <use xlink:href="#DejaVuSans-63" transform="translate(158.939453 0)"/>
      <use xlink:href="#DejaVuSans-69" transform="translate(213.919922 0)"/>
      <use xlink:href="#DejaVuSans-73" transform="translate(241.703125 0)"/>
      <use xlink:href="#DejaVuSans-69" transform="translate(293.802734 0)"/>
      <use xlink:href="#DejaVuSans-6f" transform="translate(321.585938 0)"/>
      <use xlink:href="#DejaVuSans-6e" transform="translate(382.767578 0)"/>
     </g>
    </g>
    <g id="patch_39">
     <path d="M 70.85 400.657587 
L 98.85 400.657587 
L 98.85 390.857587 
L 70.85 390.857587 
z
" style="fill: #d95f02"/>
    </g>
    <g id="text_22">
     <!-- Recall -->
     <g transform="translate(110.05 400.657587) scale(0.14 -0.14)">
      <use xlink:href="#DejaVuSans-52"/>
      <use xlink:href="#DejaVuSans-65" transform="translate(64.982422 0)"/>
      <use xlink:href="#DejaVuSans-63" transform="translate(126.505859 0)"/>
      <use xlink:href="#DejaVuSans-61" transform="translate(181.486328 0)"/>
      <use xlink:href="#DejaVuSans-6c" transform="translate(242.765625 0)"/>
      <use xlink:href="#DejaVuSans-6c" transform="translate(270.548828 0)"/>
     </g>
    </g>
    <g id="patch_40">
     <path d="M 200.509688 380.108212 
L 228.509688 380.108212 
L 228.509688 370.308212 
L 200.509688 370.308212 
z
" style="fill: #7570b3"/>
    </g>
    <g id="text_23">
     <!-- F1 -->
     <g transform="translate(239.709688 380.108212) scale(0.14 -0.14)">
      <defs>
       <path id="DejaVuSans-46" d="M 628 4666 
L 3309 4666 
L 3309 4134 
L 1259 4134 
L 1259 2759 
L 3109 2759 
L 3109 2228 
L 1259 2228 
L 1259 0 
L 628 0 
L 628 4666 
z
" transform="scale(0.015625)"/>
      </defs>
      <use xlink:href="#DejaVuSans-46"/>
      <use xlink:href="#DejaVuSans-31" transform="translate(57.519531 0)"/>
     </g>
    </g>
    <g id="LineCollection_4">
     <path d="M 214.509688 402.757587 
L 214.509688 388.757587 
" style="fill: none; stroke: #000000; stroke-width: 1.5"/>
    </g>
    <g id="line2d_41">
     <g>
      <use xlink:href="#mb2779fe936" x="214.509688" y="402.757587" style="stroke: #000000"/>
     </g>
    </g>
    <g id="line2d_42">
     <g>
      <use xlink:href="#mb2779fe936" x="214.509688" y="388.757587" style="stroke: #000000"/>
     </g>
    </g>
    <g id="line2d_43">
     <path d="M 200.509688 395.757587 
L 228.509688 395.757587 
" style="fill: none; stroke: #000000; stroke-width: 1.5; stroke-linecap: square"/>
    </g>
    <g id="line2d_44">
     <defs>
      <path id="m8b7ebf8908" d="M 0 3 
C 0.795609 3 1.55874 2.683901 2.12132 2.12132 
C 2.683901 1.55874 3 0.795609 3 0 
C 3 -0.795609 2.683901 -1.55874 2.12132 -2.12132 
C 1.55874 -2.683901 0.795609 -3 0 -3 
C -0.795609 -3 -1.55874 -2.683901 -2.12132 -2.12132 
C -2.683901 -1.55874 -3 -0.795609 -3 0 
C -3 0.795609 -2.683901 1.55874 -2.12132 2.12132 
C -1.55874 2.683901 -0.795609 3 0 3 
z
" style="stroke: #000000"/>
     </defs>
     <g>
      <use xlink:href="#m8b7ebf8908" x="214.509688" y="395.757587" style="stroke: #000000"/>
     </g>
    </g>
    <g id="text_24">
     <!-- MATE (ms) -->
     <g transform="translate(239.709688 400.657587) scale(0.14 -0.14)">
      <defs>
       <path id="DejaVuSans-28" d="M 1984 4856 
Q 1566 4138 1362 3434 
Q 1159 2731 1159 2009 
Q 1159 1288 1364 580 
Q 1569 -128 1984 -844 
L 1484 -844 
Q 1016 -109 783 600 
Q 550 1309 550 2009 
Q 550 2706 781 3412 
Q 1013 4119 1484 4856 
L 1984 4856 
z
" transform="scale(0.015625)"/>
       <path id="DejaVuSans-29" d="M 513 4856 
L 1013 4856 
Q 1481 4119 1714 3412 
Q 1947 2706 1947 2009 
Q 1947 1309 1714 600 
Q 1481 -109 1013 -844 
L 513 -844 
Q 928 -128 1133 580 
Q 1338 1288 1338 2009 
Q 1338 2731 1133 3434 
Q 928 4138 513 4856 
z
" transform="scale(0.015625)"/>
      </defs>
      <use xlink:href="#DejaVuSans-4d"/>
      <use xlink:href="#DejaVuSans-41" transform="translate(86.279297 0)"/>
      <use xlink:href="#DejaVuSans-54" transform="translate(146.9375 0)"/>
      <use xlink:href="#DejaVuSans-45" transform="translate(208.021484 0)"/>
      <use xlink:href="#DejaVuSans-20" transform="translate(271.205078 0)"/>
      <use xlink:href="#DejaVuSans-28" transform="translate(302.992188 0)"/>
      <use xlink:href="#DejaVuSans-6d" transform="translate(342.005859 0)"/>
      <use xlink:href="#DejaVuSans-73" transform="translate(439.417969 0)"/>
      <use xlink:href="#DejaVuSans-29" transform="translate(491.517578 0)"/>
     </g>
    </g>
   </g>
  </g>
  <g id="axes_2">
   <g id="matplotlib.axis_3">
    <g id="ytick_8">
     <g id="line2d_45">
      <defs>
       <path id="mcc96b5478b" d="M 0 0 
L 3.5 0 
" style="stroke: #000000; stroke-width: 0.8"/>
      </defs>
      <g>
       <use xlink:href="#mcc96b5478b" x="657.88" y="296.105406" style="stroke: #000000; stroke-width: 0.8"/>
      </g>
     </g>
     <g id="text_25">
      <!-- 7.5 -->
      <g transform="translate(664.88 300.664468) scale(0.12 -0.12)">
       <defs>
        <path id="DejaVuSans-2e" d="M 684 794 
L 1344 794 
L 1344 0 
L 684 0 
L 684 794 
z
" transform="scale(0.015625)"/>
       </defs>
       <use xlink:href="#DejaVuSans-37"/>
       <use xlink:href="#DejaVuSans-2e" transform="translate(63.623047 0)"/>
       <use xlink:href="#DejaVuSans-35" transform="translate(95.410156 0)"/>
      </g>
     </g>
    </g>
    <g id="ytick_9">
     <g id="line2d_46">
      <g>
       <use xlink:href="#mcc96b5478b" x="657.88" y="261.073289" style="stroke: #000000; stroke-width: 0.8"/>
      </g>
     </g>
     <g id="text_26">
      <!-- 10.0 -->
      <g transform="translate(664.88 265.632352) scale(0.12 -0.12)">
       <use xlink:href="#DejaVuSans-31"/>
       <use xlink:href="#DejaVuSans-30" transform="translate(63.623047 0)"/>
       <use xlink:href="#DejaVuSans-2e" transform="translate(127.246094 0)"/>
       <use xlink:href="#DejaVuSans-30" transform="translate(159.033203 0)"/>
      </g>
     </g>
    </g>
    <g id="ytick_10">
     <g id="line2d_47">
      <g>
       <use xlink:href="#mcc96b5478b" x="657.88" y="226.041173" style="stroke: #000000; stroke-width: 0.8"/>
      </g>
     </g>
     <g id="text_27">
      <!-- 12.5 -->
      <g transform="translate(664.88 230.600235) scale(0.12 -0.12)">
       <defs>
        <path id="DejaVuSans-32" d="M 1228 531 
L 3431 531 
L 3431 0 
L 469 0 
L 469 531 
Q 828 903 1448 1529 
Q 2069 2156 2228 2338 
Q 2531 2678 2651 2914 
Q 2772 3150 2772 3378 
Q 2772 3750 2511 3984 
Q 2250 4219 1831 4219 
Q 1534 4219 1204 4116 
Q 875 4013 500 3803 
L 500 4441 
Q 881 4594 1212 4672 
Q 1544 4750 1819 4750 
Q 2544 4750 2975 4387 
Q 3406 4025 3406 3419 
Q 3406 3131 3298 2873 
Q 3191 2616 2906 2266 
Q 2828 2175 2409 1742 
Q 1991 1309 1228 531 
z
" transform="scale(0.015625)"/>
       </defs>
       <use xlink:href="#DejaVuSans-31"/>
       <use xlink:href="#DejaVuSans-32" transform="translate(63.623047 0)"/>
       <use xlink:href="#DejaVuSans-2e" transform="translate(127.246094 0)"/>
       <use xlink:href="#DejaVuSans-35" transform="translate(159.033203 0)"/>
      </g>
     </g>
    </g>
    <g id="ytick_11">
     <g id="line2d_48">
      <g>
       <use xlink:href="#mcc96b5478b" x="657.88" y="191.009056" style="stroke: #000000; stroke-width: 0.8"/>
      </g>
     </g>
     <g id="text_28">
      <!-- 15.0 -->
      <g transform="translate(664.88 195.568119) scale(0.12 -0.12)">
       <use xlink:href="#DejaVuSans-31"/>
       <use xlink:href="#DejaVuSans-35" transform="translate(63.623047 0)"/>
       <use xlink:href="#DejaVuSans-2e" transform="translate(127.246094 0)"/>
       <use xlink:href="#DejaVuSans-30" transform="translate(159.033203 0)"/>
      </g>
     </g>
    </g>
    <g id="ytick_12">
     <g id="line2d_49">
      <g>
       <use xlink:href="#mcc96b5478b" x="657.88" y="155.97694" style="stroke: #000000; stroke-width: 0.8"/>
      </g>
     </g>
     <g id="text_29">
      <!-- 17.5 -->
      <g transform="translate(664.88 160.536002) scale(0.12 -0.12)">
       <use xlink:href="#DejaVuSans-31"/>
       <use xlink:href="#DejaVuSans-37" transform="translate(63.623047 0)"/>
       <use xlink:href="#DejaVuSans-2e" transform="translate(127.246094 0)"/>
       <use xlink:href="#DejaVuSans-35" transform="translate(159.033203 0)"/>
      </g>
     </g>
    </g>
    <g id="ytick_13">
     <g id="line2d_50">
      <g>
       <use xlink:href="#mcc96b5478b" x="657.88" y="120.944824" style="stroke: #000000; stroke-width: 0.8"/>
      </g>
     </g>
     <g id="text_30">
      <!-- 20.0 -->
      <g transform="translate(664.88 125.503886) scale(0.12 -0.12)">
       <use xlink:href="#DejaVuSans-32"/>
       <use xlink:href="#DejaVuSans-30" transform="translate(63.623047 0)"/>
       <use xlink:href="#DejaVuSans-2e" transform="translate(127.246094 0)"/>
       <use xlink:href="#DejaVuSans-30" transform="translate(159.033203 0)"/>
      </g>
     </g>
    </g>
    <g id="ytick_14">
     <g id="line2d_51">
      <g>
       <use xlink:href="#mcc96b5478b" x="657.88" y="85.912707" style="stroke: #000000; stroke-width: 0.8"/>
      </g>
     </g>
     <g id="text_31">
      <!-- 22.5 -->
      <g transform="translate(664.88 90.47177) scale(0.12 -0.12)">
       <use xlink:href="#DejaVuSans-32"/>
       <use xlink:href="#DejaVuSans-32" transform="translate(63.623047 0)"/>
       <use xlink:href="#DejaVuSans-2e" transform="translate(127.246094 0)"/>
       <use xlink:href="#DejaVuSans-35" transform="translate(159.033203 0)"/>
      </g>
     </g>
    </g>
    <g id="ytick_15">
     <g id="line2d_52">
      <g>
       <use xlink:href="#mcc96b5478b" x="657.88" y="50.880591" style="stroke: #000000; stroke-width: 0.8"/>
      </g>
     </g>
     <g id="text_32">
      <!-- 25.0 -->
      <g transform="translate(664.88 55.439653) scale(0.12 -0.12)">
       <use xlink:href="#DejaVuSans-32"/>
       <use xlink:href="#DejaVuSans-35" transform="translate(63.623047 0)"/>
       <use xlink:href="#DejaVuSans-2e" transform="translate(127.246094 0)"/>
       <use xlink:href="#DejaVuSans-30" transform="translate(159.033203 0)"/>
      </g>
     </g>
    </g>
    <g id="text_33">
     <!-- MATE (ms) -->
     <g transform="translate(706.236563 202.352094) rotate(-90) scale(0.14 -0.14)">
      <use xlink:href="#DejaVuSans-4d"/>
      <use xlink:href="#DejaVuSans-41" transform="translate(86.279297 0)"/>
      <use xlink:href="#DejaVuSans-54" transform="translate(146.9375 0)"/>
      <use xlink:href="#DejaVuSans-45" transform="translate(208.021484 0)"/>
      <use xlink:href="#DejaVuSans-20" transform="translate(271.205078 0)"/>
      <use xlink:href="#DejaVuSans-28" transform="translate(302.992188 0)"/>
      <use xlink:href="#DejaVuSans-6d" transform="translate(342.005859 0)"/>
      <use xlink:href="#DejaVuSans-73" transform="translate(439.417969 0)"/>
      <use xlink:href="#DejaVuSans-29" transform="translate(491.517578 0)"/>
     </g>
    </g>
   </g>
   <g id="LineCollection_5">
    <path d="M 88.2315 289.666909 
L 88.2315 231.368436 
" clip-path="url(#p4e80efd063)" style="fill: none; stroke: #000000; stroke-width: 1.5"/>
    <path d="M 148.1945 286.53637 
L 148.1945 244.386444 
" clip-path="url(#p4e80efd063)" style="fill: none; stroke: #000000; stroke-width: 1.5"/>
    <path d="M 208.1575 257.304673 
L 208.1575 218.433768 
" clip-path="url(#p4e80efd063)" style="fill: none; stroke: #000000; stroke-width: 1.5"/>
    <path d="M 268.1205 260.67047 
L 268.1205 232.970809 
" clip-path="url(#p4e80efd063)" style="fill: none; stroke: #000000; stroke-width: 1.5"/>
    <path d="M 328.0835 269.220846 
L 328.0835 231.517217 
" clip-path="url(#p4e80efd063)" style="fill: none; stroke: #000000; stroke-width: 1.5"/>
    <path d="M 388.0465 261.24677 
L 388.0465 215.263885 
" clip-path="url(#p4e80efd063)" style="fill: none; stroke: #000000; stroke-width: 1.5"/>
    <path d="M 448.0095 270.843431 
L 448.0095 217.231589 
" clip-path="url(#p4e80efd063)" style="fill: none; stroke: #000000; stroke-width: 1.5"/>
    <path d="M 507.9725 222.557832 
L 507.9725 177.028238 
" clip-path="url(#p4e80efd063)" style="fill: none; stroke: #000000; stroke-width: 1.5"/>
    <path d="M 567.9355 240.31559 
L 567.9355 207.179216 
" clip-path="url(#p4e80efd063)" style="fill: none; stroke: #000000; stroke-width: 1.5"/>
    <path d="M 627.8985 202.271718 
L 627.8985 40.765091 
" clip-path="url(#p4e80efd063)" style="fill: none; stroke: #000000; stroke-width: 1.5"/>
   </g>
   <g id="line2d_53">
    <g clip-path="url(#p4e80efd063)">
     <use xlink:href="#mb2779fe936" x="88.2315" y="289.666909" style="stroke: #000000"/>
     <use xlink:href="#mb2779fe936" x="148.1945" y="286.53637" style="stroke: #000000"/>
     <use xlink:href="#mb2779fe936" x="208.1575" y="257.304673" style="stroke: #000000"/>
     <use xlink:href="#mb2779fe936" x="268.1205" y="260.67047" style="stroke: #000000"/>
     <use xlink:href="#mb2779fe936" x="328.0835" y="269.220846" style="stroke: #000000"/>
     <use xlink:href="#mb2779fe936" x="388.0465" y="261.24677" style="stroke: #000000"/>
     <use xlink:href="#mb2779fe936" x="448.0095" y="270.843431" style="stroke: #000000"/>
     <use xlink:href="#mb2779fe936" x="507.9725" y="222.557832" style="stroke: #000000"/>
     <use xlink:href="#mb2779fe936" x="567.9355" y="240.31559" style="stroke: #000000"/>
     <use xlink:href="#mb2779fe936" x="627.8985" y="202.271718" style="stroke: #000000"/>
    </g>
   </g>
   <g id="line2d_54">
    <g clip-path="url(#p4e80efd063)">
     <use xlink:href="#mb2779fe936" x="88.2315" y="231.368436" style="stroke: #000000"/>
     <use xlink:href="#mb2779fe936" x="148.1945" y="244.386444" style="stroke: #000000"/>
     <use xlink:href="#mb2779fe936" x="208.1575" y="218.433768" style="stroke: #000000"/>
     <use xlink:href="#mb2779fe936" x="268.1205" y="232.970809" style="stroke: #000000"/>
     <use xlink:href="#mb2779fe936" x="328.0835" y="231.517217" style="stroke: #000000"/>
     <use xlink:href="#mb2779fe936" x="388.0465" y="215.263885" style="stroke: #000000"/>
     <use xlink:href="#mb2779fe936" x="448.0095" y="217.231589" style="stroke: #000000"/>
     <use xlink:href="#mb2779fe936" x="507.9725" y="177.028238" style="stroke: #000000"/>
     <use xlink:href="#mb2779fe936" x="567.9355" y="207.179216" style="stroke: #000000"/>
     <use xlink:href="#mb2779fe936" x="627.8985" y="40.765091" style="stroke: #000000"/>
    </g>
   </g>
   <g id="line2d_55">
    <path d="M 88.2315 260.517672 
L 148.1945 265.461407 
L 208.1575 237.869221 
L 268.1205 246.82064 
L 328.0835 250.369032 
L 388.0465 238.255327 
L 448.0095 244.03751 
L 507.9725 199.793035 
L 567.9355 223.747403 
L 627.8985 121.518404 
" clip-path="url(#p4e80efd063)" style="fill: none; stroke: #000000; stroke-width: 1.5; stroke-linecap: square"/>
    <g clip-path="url(#p4e80efd063)">
     <use xlink:href="#m8b7ebf8908" x="88.2315" y="260.517672" style="stroke: #000000"/>
     <use xlink:href="#m8b7ebf8908" x="148.1945" y="265.461407" style="stroke: #000000"/>
     <use xlink:href="#m8b7ebf8908" x="208.1575" y="237.869221" style="stroke: #000000"/>
     <use xlink:href="#m8b7ebf8908" x="268.1205" y="246.82064" style="stroke: #000000"/>
     <use xlink:href="#m8b7ebf8908" x="328.0835" y="250.369032" style="stroke: #000000"/>
     <use xlink:href="#m8b7ebf8908" x="388.0465" y="238.255327" style="stroke: #000000"/>
     <use xlink:href="#m8b7ebf8908" x="448.0095" y="244.03751" style="stroke: #000000"/>
     <use xlink:href="#m8b7ebf8908" x="507.9725" y="199.793035" style="stroke: #000000"/>
     <use xlink:href="#m8b7ebf8908" x="567.9355" y="223.747403" style="stroke: #000000"/>
     <use xlink:href="#m8b7ebf8908" x="627.8985" y="121.518404" style="stroke: #000000"/>
    </g>
   </g>
   <g id="patch_41">
    <path d="M 58.25 302.112 
L 58.25 28.32 
" style="fill: none; stroke: #000000; stroke-width: 0.8; stroke-linejoin: miter; stroke-linecap: square"/>
   </g>
   <g id="patch_42">
    <path d="M 657.88 302.112 
L 657.88 28.32 
" style="fill: none; stroke: #000000; stroke-width: 0.8; stroke-linejoin: miter; stroke-linecap: square"/>
   </g>
   <g id="patch_43">
    <path d="M 58.25 302.112 
L 657.88 302.112 
" style="fill: none; stroke: #000000; stroke-width: 0.8; stroke-linejoin: miter; stroke-linecap: square"/>
   </g>
   <g id="patch_44">
    <path d="M 58.25 28.32 
L 657.88 28.32 
" style="fill: none; stroke: #000000; stroke-width: 0.8; stroke-linejoin: miter; stroke-linecap: square"/>
   </g>
  </g>
 </g>
 <defs>
  <clipPath id="p4e80efd063">
   <rect x="58.25" y="28.32" width="599.63" height="273.792"/>
  </clipPath>
 </defs>
</svg>
